<svg xmlns="http://www.w3.org/2000/svg" data-name="Layer 1" viewBox="0 0 24 24" id="Login"><path d="M21,0H10A3.009,3.009,0,0,0,7,3V9h3a2.958,2.958,0,0,1,.88-2.12,3.061,3.061,0,0,1,4.24,0l3,3a3.031,3.031,0,0,1,0,4.24l-3,3a3.024,3.024,0,0,1-4.24,0A2.958,2.958,0,0,1,10,15H7v6a3.009,3.009,0,0,0,3,3H21a3.009,3.009,0,0,0,3-3V3A3.009,3.009,0,0,0,21,0Z" fill="#4F5B84" class="color000000 svgShape"></path><path d="M13.59,13l-1.3,1.29a1.008,1.008,0,0,0,0,1.42,1.035,1.035,0,0,0,1.42,0l3-3a1.041,1.041,0,0,0,0-1.42l-3-3a1,1,0,0,0-1.42,1.42L13.59,11H1a1,1,0,0,0,0,2Z" fill="#4F5B84" class="color000000 svgShape"></path></svg>