<svg width="168" height="16" viewBox="0 0 168 16" fill="none" xmlns="http://www.w3.org/2000/svg">
    <path d="M10.6923 1.15015C8.7286 1.15015 7.13672 2.69228 7.13672 4.59459C7.13672 4.59493 7.13672 4.59528 7.13672 4.59562V11.4835C7.13672 13.3858 8.7286 14.9279 10.6923 14.9279C12.656 14.9279 14.2478 13.3858 14.2478 11.4835V8.90015C14.2478 8.42457 14.6458 8.03904 15.1367 8.03904H17.8034C19.7671 8.03904 21.3589 6.49691 21.3589 4.59459C21.3589 2.69228 19.7671 1.15015 17.8034 1.15015L10.6941 1.15015C10.6935 1.15015 10.6929 1.15015 10.6923 1.15015Z" fill="#4F5B84"/>
    <path d="M10.6921 14.9279C12.6557 14.9279 14.2476 13.3858 14.2476 11.4835C14.2476 11.4831 14.2476 11.4828 14.2476 11.4825L14.2476 4.59459C14.2476 2.69228 12.6557 1.15015 10.6921 1.15015C8.72838 1.15015 7.1365 2.69228 7.1365 4.59459V7.17792C7.1365 7.6535 6.73853 8.03903 6.24761 8.03903H3.58095C1.61727 8.03903 0.0253908 9.58116 0.0253906 11.4835C0.0253905 13.3858 1.61727 14.9279 3.58095 14.9279L10.6903 14.9279C10.6909 14.9279 10.6915 14.9279 10.6921 14.9279Z" fill="url(#paint0_linear_26_21210)"/>
    <path d="M85.9992 3.38177C86.3604 4.12858 86.5411 4.95993 86.5411 5.87583C86.5411 6.79172 86.3604 7.62307 85.9992 8.36988C85.638 9.1026 85.1725 9.68736 84.6029 10.1242C83.4497 11.026 82.2549 11.4769 81.0184 11.4769H78.4133V13.8653C78.4133 14.1893 78.3994 14.4359 78.3717 14.605C78.3578 14.76 78.2952 14.9432 78.1841 15.1546C77.9896 15.535 77.4477 15.7252 76.5586 15.7252C75.586 15.7252 75.0164 15.4646 74.8496 14.9432C74.7663 14.7037 74.7246 14.3373 74.7246 13.8441V2.11361C74.7246 1.78952 74.7316 1.54998 74.7454 1.39498C74.7732 1.22589 74.8427 1.03567 74.9538 0.824307C75.1484 0.443858 75.6902 0.253633 76.5794 0.253633H81.0392C82.2619 0.253633 83.4497 0.704536 84.6029 1.60634C85.1725 2.04315 85.638 2.63496 85.9992 3.38177ZM81.0392 7.7358C81.456 7.7358 81.8659 7.5808 82.2688 7.27081C82.6717 6.96081 82.8732 6.49582 82.8732 5.87583C82.8732 5.25583 82.6717 4.79084 82.2688 4.48085C81.8659 4.15676 81.4491 3.99472 81.0184 3.99472H78.4133V7.7358H81.0392Z" fill="#4F5B84"/>
    <path d="M98.9585 13.1255C99.1669 13.6328 99.2711 13.9991 99.2711 14.2246C99.2711 14.76 98.8404 15.2109 97.979 15.5773C97.5344 15.7745 97.1731 15.8732 96.8953 15.8732C96.6313 15.8732 96.409 15.8098 96.2284 15.683C96.0617 15.5421 95.9366 15.4011 95.8533 15.2602C95.7143 14.9925 95.1725 13.7173 94.2277 11.4346L93.5817 11.4769H90.9558V13.8653C90.9558 14.1893 90.9419 14.4359 90.9141 14.605C90.9002 14.76 90.8377 14.9432 90.7265 15.1546C90.532 15.535 89.9902 15.7252 89.101 15.7252C88.1285 15.7252 87.5588 15.4646 87.3921 14.9432C87.3087 14.7037 87.2671 14.3373 87.2671 13.8441V2.11361C87.2671 1.78952 87.274 1.54998 87.2879 1.39498C87.3157 1.22589 87.3851 1.03567 87.4963 0.824307C87.6908 0.443858 88.2327 0.253633 89.1218 0.253633H93.6234C94.846 0.253633 96.0339 0.704536 97.187 1.60634C97.7428 2.04315 98.2013 2.63496 98.5625 3.38177C98.9237 4.12858 99.1043 4.95993 99.1043 5.87583C99.1043 7.46808 98.5833 8.77851 97.5413 9.80713C97.847 10.5539 98.3194 11.6601 98.9585 13.1255ZM90.9558 7.7358H93.6234C94.0263 7.7358 94.4292 7.5808 94.8321 7.27081C95.235 6.96081 95.4365 6.49582 95.4365 5.87583C95.4365 5.25583 95.235 4.79084 94.8321 4.48085C94.4292 4.15676 94.0124 3.99472 93.5817 3.99472H90.9558V7.7358Z" fill="#4F5B84"/>
    <path d="M106.755 0.0634086C108.811 0.0634086 110.596 0.817262 112.111 2.32497C113.625 3.83267 114.382 5.70674 114.382 7.94716C114.382 10.1735 113.66 12.0757 112.215 13.6539C110.77 15.218 108.992 16 106.88 16C104.768 16 102.969 15.225 101.482 13.675C100.009 12.1251 99.273 10.2792 99.273 8.13738C99.273 6.96786 99.4814 5.87583 99.8982 4.86129C100.315 3.83267 100.871 2.97314 101.565 2.2827C102.26 1.59225 103.059 1.04976 103.962 0.655218C104.865 0.260678 105.796 0.0634086 106.755 0.0634086ZM102.962 8.0317C102.962 9.28578 103.358 10.3074 104.15 11.0964C104.955 11.8714 105.852 12.2589 106.838 12.2589C107.825 12.2589 108.714 11.8785 109.506 11.1176C110.298 10.3567 110.694 9.3351 110.694 8.05284C110.694 6.77059 110.291 5.74196 109.485 4.96697C108.693 4.19199 107.804 3.80449 106.817 3.80449C105.831 3.80449 104.942 4.19903 104.15 4.98811C103.358 5.7631 102.962 6.77763 102.962 8.0317Z" fill="#4F5B84"/>
    <path d="M115.349 13.5694C114.988 13.1185 114.807 12.7169 114.807 12.3646C114.807 11.9982 115.106 11.5192 115.703 10.9273C116.051 10.5892 116.419 10.4201 116.808 10.4201C117.197 10.4201 117.739 10.7723 118.433 11.4769C118.628 11.7164 118.906 11.9489 119.267 12.1744C119.628 12.3857 119.962 12.4914 120.267 12.4914C121.559 12.4914 122.206 11.956 122.206 10.8851C122.206 10.561 122.025 10.2933 121.664 10.0819C121.316 9.85645 120.879 9.69441 120.351 9.59577C119.823 9.49714 119.253 9.34214 118.642 9.13078C118.03 8.90533 117.461 8.64465 116.933 8.34875C116.405 8.05284 115.96 7.58785 115.599 6.95377C115.252 6.30559 115.078 5.5306 115.078 4.6288C115.078 3.38882 115.53 2.31088 116.433 1.39498C117.35 0.464994 118.593 0 120.163 0C120.997 0 121.754 0.112726 122.435 0.338178C123.129 0.549538 123.609 0.767944 123.873 0.993396L124.394 1.39498C124.824 1.80361 125.04 2.14883 125.04 2.43065C125.04 2.71246 124.873 3.09996 124.54 3.59313C124.067 4.29767 123.581 4.64993 123.081 4.64993C122.789 4.64993 122.428 4.50903 121.997 4.22721C121.955 4.19903 121.872 4.12858 121.747 4.01585C121.636 3.90313 121.532 3.81154 121.434 3.74108C121.143 3.5579 120.768 3.46631 120.309 3.46631C119.864 3.46631 119.489 3.57904 119.184 3.80449C118.892 4.01585 118.746 4.3188 118.746 4.71334C118.746 5.09379 118.92 5.40379 119.267 5.64333C119.628 5.88287 120.073 6.04491 120.601 6.12946C121.129 6.214 121.705 6.34786 122.331 6.53104C122.956 6.70013 123.532 6.91149 124.06 7.16513C124.588 7.41876 125.026 7.86262 125.373 8.4967C125.734 9.11669 125.915 9.88463 125.915 10.8005C125.915 11.7164 125.734 12.5266 125.373 13.2312C125.012 13.9216 124.54 14.4571 123.956 14.8375C122.831 15.5843 121.629 15.9577 120.351 15.9577C119.698 15.9577 119.079 15.8802 118.496 15.7252C117.912 15.5561 117.44 15.3518 117.079 15.1123C116.342 14.6614 115.828 14.2246 115.537 13.8018L115.349 13.5694Z" fill="#4F5B84"/>
    <path d="M136.085 0.824307C136.196 0.612947 136.384 0.464994 136.648 0.380449C136.912 0.295905 137.245 0.253633 137.648 0.253633C138.051 0.253633 138.371 0.28886 138.607 0.359313C138.843 0.429767 139.024 0.514311 139.149 0.612947C139.274 0.711581 139.371 0.852488 139.441 1.03567C139.51 1.27521 139.545 1.64157 139.545 2.13474V13.8653C139.545 14.1893 139.531 14.4359 139.503 14.605C139.489 14.76 139.427 14.9432 139.316 15.1546C139.121 15.535 138.579 15.7252 137.69 15.7252C136.717 15.7252 136.148 15.4646 135.981 14.9432C135.898 14.7037 135.856 14.3373 135.856 13.8441V9.5535H130.333V13.8653C130.333 14.1893 130.319 14.4359 130.292 14.605C130.278 14.76 130.215 14.9432 130.104 15.1546C129.91 15.535 129.368 15.7252 128.479 15.7252C127.506 15.7252 126.936 15.4646 126.77 14.9432C126.686 14.7037 126.645 14.3373 126.645 13.8441V2.11361C126.645 1.78952 126.652 1.54998 126.665 1.39498C126.693 1.22589 126.763 1.03567 126.874 0.824307C127.068 0.443858 127.61 0.253633 128.499 0.253633C129.472 0.253633 130.049 0.514311 130.229 1.03567C130.299 1.27521 130.333 1.64157 130.333 2.13474V6.4465H135.856V2.11361C135.856 1.78952 135.863 1.54998 135.877 1.39498C135.905 1.22589 135.974 1.03567 136.085 0.824307Z" fill="#4F5B84"/>
    <path d="M147.76 0.0634086C149.817 0.0634086 151.602 0.817262 153.116 2.32497C154.631 3.83267 155.388 5.70674 155.388 7.94716C155.388 10.1735 154.666 12.0757 153.221 13.6539C151.776 15.218 149.997 16 147.885 16C145.774 16 143.974 15.225 142.488 13.675C141.015 12.1251 140.279 10.2792 140.279 8.13738C140.279 6.96786 140.487 5.87583 140.904 4.86129C141.321 3.83267 141.877 2.97314 142.571 2.2827C143.266 1.59225 144.065 1.04976 144.968 0.655218C145.871 0.260678 146.802 0.0634086 147.76 0.0634086ZM143.968 8.0317C143.968 9.28578 144.363 10.3074 145.155 11.0964C145.961 11.8714 146.857 12.2589 147.844 12.2589C148.83 12.2589 149.719 11.8785 150.511 11.1176C151.303 10.3567 151.699 9.3351 151.699 8.05284C151.699 6.77059 151.296 5.74196 150.491 4.96697C149.699 4.19199 148.809 3.80449 147.823 3.80449C146.837 3.80449 145.947 4.19903 145.155 4.98811C144.363 5.7631 143.968 6.77763 143.968 8.0317Z" fill="#4F5B84"/>
    <path d="M167.4 3.38177C167.761 4.12858 167.942 4.95993 167.942 5.87583C167.942 6.79172 167.761 7.62307 167.4 8.36988C167.039 9.1026 166.573 9.68736 166.004 10.1242C164.851 11.026 163.656 11.4769 162.419 11.4769H159.814V13.8653C159.814 14.1893 159.8 14.4359 159.773 14.605C159.759 14.76 159.696 14.9432 159.585 15.1546C159.391 15.535 158.849 15.7252 157.959 15.7252C156.987 15.7252 156.417 15.4646 156.251 14.9432C156.167 14.7037 156.126 14.3373 156.126 13.8441V2.11361C156.126 1.78952 156.132 1.54998 156.146 1.39498C156.174 1.22589 156.244 1.03567 156.355 0.824307C156.549 0.443858 157.091 0.253633 157.98 0.253633H162.44C163.663 0.253633 164.851 0.704536 166.004 1.60634C166.573 2.04315 167.039 2.63496 167.4 3.38177ZM162.44 7.7358C162.857 7.7358 163.267 7.5808 163.67 7.27081C164.073 6.96081 164.274 6.49582 164.274 5.87583C164.274 5.25583 164.073 4.79084 163.67 4.48085C163.267 4.15676 162.85 3.99472 162.419 3.99472H159.814V7.7358H162.44Z" fill="#4F5B84"/>
    <path d="M29.0097 12.9349H34.6595C35.1164 12.9349 35.4488 12.9901 35.6565 13.1006C35.8642 13.1972 36.0027 13.356 36.0719 13.5769C36.1412 13.7978 36.1758 14.0946 36.1758 14.4674C36.1758 14.8264 36.1412 15.1163 36.0719 15.3372C36.0027 15.5581 35.885 15.71 35.7188 15.7928C35.4557 15.9309 35.0957 15.9999 34.6387 15.9999H27.1611C26.1918 15.9999 25.624 15.7376 25.4579 15.2129C25.3748 14.992 25.3333 14.64 25.3333 14.1568V2.64225C25.3333 2.32471 25.3402 2.09 25.354 1.93813C25.3817 1.77245 25.451 1.58607 25.5617 1.37897C25.7556 1.0062 26.2956 0.819814 27.1819 0.819814C28.1512 0.819814 28.7259 1.07523 28.9059 1.58607C28.9751 1.82077 29.0097 2.17974 29.0097 2.66296V12.9349Z" fill="url(#paint1_linear_26_21210)"/>
    <path d="M36.901 2.64225C36.901 2.32471 36.9079 2.09 36.9218 1.93813C36.9494 1.77245 37.0187 1.58607 37.1295 1.37897C37.3233 1.0062 37.8634 0.819814 38.7496 0.819814C39.7189 0.819814 40.2936 1.07523 40.4736 1.58607C40.5428 1.82077 40.5775 2.17974 40.5775 2.66296V14.1775C40.5775 14.5088 40.5636 14.7504 40.5359 14.9023C40.5221 15.0542 40.4598 15.2337 40.349 15.4407C40.1551 15.8135 39.6151 15.9999 38.7288 15.9999C37.7595 15.9999 37.1918 15.7376 37.0256 15.2129C36.9425 14.992 36.901 14.64 36.901 14.1568V2.64225Z" fill="url(#paint2_linear_26_21210)"/>
    <path d="M55.5085 1.04762C56.3255 1.448 56.734 1.88981 56.734 2.37303C56.734 2.59393 56.6301 2.92528 56.4224 3.36709L50.6896 14.9644C50.5373 15.2682 50.3019 15.5167 49.9834 15.71C49.6787 15.8895 49.3602 15.9792 49.0279 15.9792H48.8202C48.474 15.9792 48.1417 15.8895 47.8232 15.71C47.5185 15.5167 47.2901 15.2682 47.1377 14.9644L41.4049 3.36709C41.1972 2.92528 41.0933 2.59393 41.0933 2.37303C41.0933 1.88981 41.5018 1.448 42.3188 1.04762C42.7758 0.81291 43.122 0.695557 43.3574 0.695557C43.6066 0.695557 43.7936 0.723169 43.9182 0.778395C44.0428 0.833621 44.1605 0.930265 44.2713 1.06833C44.3959 1.234 44.5067 1.42039 44.6037 1.62749C44.7144 1.82078 44.9845 2.39374 45.4137 3.34638C45.843 4.28521 46.3 5.28617 46.7846 6.34926C47.2831 7.41235 47.747 8.42022 48.1763 9.37285C48.6194 10.3117 48.8687 10.8363 48.924 10.9468L53.0783 1.876C53.1891 1.61368 53.286 1.40658 53.3691 1.25471C53.6183 0.881943 53.923 0.695557 54.283 0.695557C54.643 0.695557 55.0515 0.81291 55.5085 1.04762Z" fill="url(#paint3_linear_26_21210)"/>
    <path d="M60.934 12.3343H67.3315C67.65 12.3343 67.8854 12.3481 68.0377 12.3757C68.2039 12.3895 68.3908 12.4517 68.5985 12.5621C68.9724 12.7554 69.1593 13.2939 69.1593 14.1775C69.1593 15.1439 68.9032 15.71 68.3908 15.8756C68.1554 15.9585 67.7954 15.9999 67.3107 15.9999H59.0853C58.116 15.9999 57.5483 15.7376 57.3821 15.2129C57.299 14.992 57.2575 14.64 57.2575 14.1568V2.64225C57.2575 1.93813 57.389 1.46181 57.6521 1.21329C57.9152 0.950974 58.4137 0.819814 59.1477 0.819814H67.3315C67.65 0.819814 67.8854 0.83362 68.0377 0.861233C68.2039 0.875039 68.3908 0.937168 68.5985 1.04762C68.9724 1.24091 69.1593 1.77936 69.1593 2.66296C69.1593 3.62941 68.9032 4.19547 68.3908 4.36114C68.1554 4.44398 67.7954 4.4854 67.3107 4.4854H60.934V6.57707H65.0467C65.3651 6.57707 65.6006 6.59087 65.7529 6.61848C65.919 6.63229 66.106 6.69442 66.3137 6.80487C66.6876 6.99816 66.8745 7.53661 66.8745 8.42021C66.8745 9.38666 66.6114 9.95272 66.0852 10.1184C65.8498 10.2012 65.4898 10.2427 65.0051 10.2427H60.934V12.3343Z" fill="url(#paint4_linear_26_21210)"/>
    <defs>
        <linearGradient id="paint0_linear_26_21210" x1="14.2476" y1="1.15015" x2="0.475801" y2="15.3643" gradientUnits="userSpaceOnUse">
            <stop stop-color="#4F5B84"/>
            <stop offset="0.182292" stop-color="#93699C"/>
            <stop offset="0.390625" stop-color="#D7779B"/>
            <stop offset="0.59375" stop-color="#FF9384"/>
            <stop offset="0.78125" stop-color="#FFC16C"/>
            <stop offset="1" stop-color="#F9F871"/>
        </linearGradient>
        <linearGradient id="paint1_linear_26_21210" x1="69.1501" y1="16.0394" x2="25.3589" y2="1.53903" gradientUnits="userSpaceOnUse">
            <stop stop-color="#4F5B84"/>
            <stop offset="0.182292" stop-color="#93699C"/>
            <stop offset="0.390625" stop-color="#D7779B"/>
            <stop offset="0.59375" stop-color="#FF9384"/>
            <stop offset="0.78125" stop-color="#FFC16C"/>
            <stop offset="1" stop-color="#F9F871"/>
        </linearGradient>
        <linearGradient id="paint2_linear_26_21210" x1="69.1501" y1="16.0394" x2="25.3589" y2="1.53903" gradientUnits="userSpaceOnUse">
            <stop stop-color="#4F5B84"/>
            <stop offset="0.182292" stop-color="#93699C"/>
            <stop offset="0.390625" stop-color="#D7779B"/>
            <stop offset="0.59375" stop-color="#FF9384"/>
            <stop offset="0.78125" stop-color="#FFC16C"/>
            <stop offset="1" stop-color="#F9F871"/>
        </linearGradient>
        <linearGradient id="paint3_linear_26_21210" x1="69.1501" y1="16.0394" x2="25.3589" y2="1.53903" gradientUnits="userSpaceOnUse">
            <stop stop-color="#4F5B84"/>
            <stop offset="0.182292" stop-color="#93699C"/>
            <stop offset="0.390625" stop-color="#D7779B"/>
            <stop offset="0.59375" stop-color="#FF9384"/>
            <stop offset="0.78125" stop-color="#FFC16C"/>
            <stop offset="1" stop-color="#F9F871"/>
        </linearGradient>
        <linearGradient id="paint4_linear_26_21210" x1="69.1501" y1="16.0394" x2="25.3589" y2="1.53903" gradientUnits="userSpaceOnUse">
            <stop stop-color="#4F5B84"/>
            <stop offset="0.182292" stop-color="#93699C"/>
            <stop offset="0.390625" stop-color="#D7779B"/>
            <stop offset="0.59375" stop-color="#FF9384"/>
            <stop offset="0.78125" stop-color="#FFC16C"/>
            <stop offset="1" stop-color="#F9F871"/>
        </linearGradient>
    </defs>
</svg>
