<svg width="169" height="16" viewBox="0 0 169 16" fill="none" xmlns="http://www.w3.org/2000/svg">
    <path d="M11.1922 1.15015C9.22847 1.15015 7.6366 2.69228 7.6366 4.59459C7.6366 4.59493 7.6366 4.59528 7.6366 4.59562V11.4835C7.6366 13.3858 9.22847 14.9279 11.1922 14.9279C13.1558 14.9279 14.7477 13.3858 14.7477 11.4835V8.90015C14.7477 8.42457 15.1457 8.03904 15.6366 8.03904H18.3033C20.2669 8.03904 21.8588 6.49691 21.8588 4.59459C21.8588 2.69228 20.2669 1.15015 18.3033 1.15015L11.1939 1.15015C11.1933 1.15015 11.1927 1.15015 11.1922 1.15015Z" fill="#4F5B84"/>
    <path d="M11.1922 14.9279C13.1559 14.9279 14.7477 13.3858 14.7477 11.4835C14.7477 11.4831 14.7477 11.4828 14.7477 11.4825L14.7477 4.59459C14.7477 2.69228 13.1559 1.15015 11.1922 1.15015C9.2285 1.15015 7.63662 2.69228 7.63662 4.59459V7.17792C7.63662 7.6535 7.23866 8.03903 6.74774 8.03903H4.08107C2.11739 8.03903 0.525513 9.58116 0.525513 11.4835C0.525513 13.3858 2.11739 14.9279 4.08107 14.9279L11.1904 14.9279C11.191 14.9279 11.1916 14.9279 11.1922 14.9279Z" fill="url(#paint0_linear_364_123641)"/>
    <path d="M86.4993 3.38177C86.8606 4.12858 87.0412 4.95993 87.0412 5.87583C87.0412 6.79172 86.8606 7.62307 86.4993 8.36988C86.1381 9.1026 85.6727 9.68736 85.103 10.1242C83.9499 11.026 82.755 11.4769 81.5185 11.4769H78.9135V13.8653C78.9135 14.1893 78.8996 14.4359 78.8718 14.605C78.8579 14.76 78.7954 14.9432 78.6842 15.1546C78.4897 15.535 77.9479 15.7252 77.0587 15.7252C76.0861 15.7252 75.5165 15.4646 75.3498 14.9432C75.2664 14.7037 75.2247 14.3373 75.2247 13.8441V2.11361C75.2247 1.78952 75.2317 1.54998 75.2456 1.39498C75.2734 1.22589 75.3428 1.03567 75.454 0.824307C75.6485 0.443858 76.1903 0.253633 77.0795 0.253633H81.5393C82.762 0.253633 83.9499 0.704536 85.103 1.60634C85.6727 2.04315 86.1381 2.63496 86.4993 3.38177ZM81.5393 7.7358C81.9562 7.7358 82.366 7.5808 82.7689 7.27081C83.1718 6.96081 83.3733 6.49582 83.3733 5.87583C83.3733 5.25583 83.1718 4.79084 82.7689 4.48085C82.366 4.15676 81.9492 3.99472 81.5185 3.99472H78.9135V7.7358H81.5393Z" fill="#4F5B84"/>
    <path d="M99.4586 13.1255C99.667 13.6328 99.7712 13.9991 99.7712 14.2246C99.7712 14.76 99.3405 15.2109 98.4791 15.5773C98.0345 15.7745 97.6733 15.8732 97.3954 15.8732C97.1314 15.8732 96.9091 15.8098 96.7285 15.683C96.5618 15.5421 96.4367 15.4011 96.3534 15.2602C96.2144 14.9925 95.6726 13.7173 94.7278 11.4346L94.0818 11.4769H91.4559V13.8653C91.4559 14.1893 91.442 14.4359 91.4142 14.605C91.4003 14.76 91.3378 14.9432 91.2267 15.1546C91.0322 15.535 90.4903 15.7252 89.6011 15.7252C88.6286 15.7252 88.0589 15.4646 87.8922 14.9432C87.8089 14.7037 87.7672 14.3373 87.7672 13.8441V2.11361C87.7672 1.78952 87.7741 1.54998 87.788 1.39498C87.8158 1.22589 87.8853 1.03567 87.9964 0.824307C88.1909 0.443858 88.7328 0.253633 89.622 0.253633H94.1235C95.3461 0.253633 96.534 0.704536 97.6872 1.60634C98.2429 2.04315 98.7014 2.63496 99.0626 3.38177C99.4239 4.12858 99.6045 4.95993 99.6045 5.87583C99.6045 7.46808 99.0835 8.77851 98.0415 9.80713C98.3471 10.5539 98.8195 11.6601 99.4586 13.1255ZM91.4559 7.7358H94.1235C94.5264 7.7358 94.9293 7.5808 95.3322 7.27081C95.7351 6.96081 95.9366 6.49582 95.9366 5.87583C95.9366 5.25583 95.7351 4.79084 95.3322 4.48085C94.9293 4.15676 94.5125 3.99472 94.0818 3.99472H91.4559V7.7358Z" fill="#4F5B84"/>
    <path d="M107.255 0.0634086C109.311 0.0634086 111.096 0.817262 112.611 2.32497C114.125 3.83267 114.882 5.70674 114.882 7.94716C114.882 10.1735 114.16 12.0757 112.715 13.6539C111.27 15.218 109.492 16 107.38 16C105.268 16 103.469 15.225 101.982 13.675C100.51 12.1251 99.7731 10.2792 99.7731 8.13738C99.7731 6.96786 99.9816 5.87583 100.398 4.86129C100.815 3.83267 101.371 2.97314 102.066 2.2827C102.76 1.59225 103.559 1.04976 104.462 0.655218C105.365 0.260678 106.296 0.0634086 107.255 0.0634086ZM103.462 8.0317C103.462 9.28578 103.858 10.3074 104.65 11.0964C105.456 11.8714 106.352 12.2589 107.338 12.2589C108.325 12.2589 109.214 11.8785 110.006 11.1176C110.798 10.3567 111.194 9.3351 111.194 8.05284C111.194 6.77059 110.791 5.74196 109.985 4.96697C109.193 4.19199 108.304 3.80449 107.317 3.80449C106.331 3.80449 105.442 4.19903 104.65 4.98811C103.858 5.7631 103.462 6.77763 103.462 8.0317Z" fill="#4F5B84"/>
    <path d="M115.849 13.5694C115.488 13.1185 115.307 12.7169 115.307 12.3646C115.307 11.9982 115.606 11.5192 116.203 10.9273C116.551 10.5892 116.919 10.4201 117.308 10.4201C117.697 10.4201 118.239 10.7723 118.934 11.4769C119.128 11.7164 119.406 11.9489 119.767 12.1744C120.128 12.3857 120.462 12.4914 120.767 12.4914C122.06 12.4914 122.706 11.956 122.706 10.8851C122.706 10.561 122.525 10.2933 122.164 10.0819C121.816 9.85645 121.379 9.69441 120.851 9.59577C120.323 9.49714 119.753 9.34214 119.142 9.13078C118.531 8.90533 117.961 8.64465 117.433 8.34875C116.905 8.05284 116.46 7.58785 116.099 6.95377C115.752 6.30559 115.578 5.5306 115.578 4.6288C115.578 3.38882 116.03 2.31088 116.933 1.39498C117.85 0.464994 119.093 0 120.663 0C121.497 0 122.254 0.112726 122.935 0.338178C123.63 0.549538 124.109 0.767944 124.373 0.993396L124.894 1.39498C125.325 1.80361 125.54 2.14883 125.54 2.43065C125.54 2.71246 125.373 3.09996 125.04 3.59313C124.567 4.29767 124.081 4.64993 123.581 4.64993C123.289 4.64993 122.928 4.50903 122.497 4.22721C122.456 4.19903 122.372 4.12858 122.247 4.01585C122.136 3.90313 122.032 3.81154 121.935 3.74108C121.643 3.5579 121.268 3.46631 120.809 3.46631C120.365 3.46631 119.989 3.57904 119.684 3.80449C119.392 4.01585 119.246 4.3188 119.246 4.71334C119.246 5.09379 119.42 5.40379 119.767 5.64333C120.128 5.88287 120.573 6.04491 121.101 6.12946C121.629 6.214 122.205 6.34786 122.831 6.53104C123.456 6.70013 124.032 6.91149 124.56 7.16513C125.088 7.41876 125.526 7.86262 125.873 8.4967C126.235 9.11669 126.415 9.88463 126.415 10.8005C126.415 11.7164 126.235 12.5266 125.873 13.2312C125.512 13.9216 125.04 14.4571 124.456 14.8375C123.331 15.5843 122.129 15.9577 120.851 15.9577C120.198 15.9577 119.58 15.8802 118.996 15.7252C118.413 15.5561 117.94 15.3518 117.579 15.1123C116.843 14.6614 116.328 14.2246 116.037 13.8018L115.849 13.5694Z" fill="#4F5B84"/>
    <path d="M136.585 0.824307C136.697 0.612947 136.884 0.464994 137.148 0.380449C137.412 0.295905 137.746 0.253633 138.148 0.253633C138.551 0.253633 138.871 0.28886 139.107 0.359313C139.343 0.429767 139.524 0.514311 139.649 0.612947C139.774 0.711581 139.871 0.852488 139.941 1.03567C140.01 1.27521 140.045 1.64157 140.045 2.13474V13.8653C140.045 14.1893 140.031 14.4359 140.003 14.605C139.989 14.76 139.927 14.9432 139.816 15.1546C139.621 15.535 139.079 15.7252 138.19 15.7252C137.218 15.7252 136.648 15.4646 136.481 14.9432C136.398 14.7037 136.356 14.3373 136.356 13.8441V9.5535H130.834V13.8653C130.834 14.1893 130.82 14.4359 130.792 14.605C130.778 14.76 130.715 14.9432 130.604 15.1546C130.41 15.535 129.868 15.7252 128.979 15.7252C128.006 15.7252 127.437 15.4646 127.27 14.9432C127.186 14.7037 127.145 14.3373 127.145 13.8441V2.11361C127.145 1.78952 127.152 1.54998 127.166 1.39498C127.193 1.22589 127.263 1.03567 127.374 0.824307C127.569 0.443858 128.11 0.253633 129 0.253633C129.972 0.253633 130.549 0.514311 130.729 1.03567C130.799 1.27521 130.834 1.64157 130.834 2.13474V6.4465H136.356V2.11361C136.356 1.78952 136.363 1.54998 136.377 1.39498C136.405 1.22589 136.474 1.03567 136.585 0.824307Z" fill="#4F5B84"/>
    <path d="M148.261 0.0634086C150.317 0.0634086 152.102 0.817262 153.617 2.32497C155.131 3.83267 155.888 5.70674 155.888 7.94716C155.888 10.1735 155.166 12.0757 153.721 13.6539C152.276 15.218 150.497 16 148.386 16C146.274 16 144.475 15.225 142.988 13.675C141.515 12.1251 140.779 10.2792 140.779 8.13738C140.779 6.96786 140.987 5.87583 141.404 4.86129C141.821 3.83267 142.377 2.97314 143.071 2.2827C143.766 1.59225 144.565 1.04976 145.468 0.655218C146.371 0.260678 147.302 0.0634086 148.261 0.0634086ZM144.468 8.0317C144.468 9.28578 144.864 10.3074 145.656 11.0964C146.461 11.8714 147.357 12.2589 148.344 12.2589C149.33 12.2589 150.22 11.8785 151.011 11.1176C151.803 10.3567 152.199 9.3351 152.199 8.05284C152.199 6.77059 151.796 5.74196 150.991 4.96697C150.199 4.19199 149.31 3.80449 148.323 3.80449C147.337 3.80449 146.447 4.19903 145.656 4.98811C144.864 5.7631 144.468 6.77763 144.468 8.0317Z" fill="#4F5B84"/>
    <path d="M167.9 3.38177C168.262 4.12858 168.442 4.95993 168.442 5.87583C168.442 6.79172 168.262 7.62307 167.9 8.36988C167.539 9.1026 167.074 9.68736 166.504 10.1242C165.351 11.026 164.156 11.4769 162.919 11.4769H160.314V13.8653C160.314 14.1893 160.301 14.4359 160.273 14.605C160.259 14.76 160.196 14.9432 160.085 15.1546C159.891 15.535 159.349 15.7252 158.46 15.7252C157.487 15.7252 156.917 15.4646 156.751 14.9432C156.667 14.7037 156.626 14.3373 156.626 13.8441V2.11361C156.626 1.78952 156.633 1.54998 156.647 1.39498C156.674 1.22589 156.744 1.03567 156.855 0.824307C157.049 0.443858 157.591 0.253633 158.48 0.253633H162.94C164.163 0.253633 165.351 0.704536 166.504 1.60634C167.074 2.04315 167.539 2.63496 167.9 3.38177ZM162.94 7.7358C163.357 7.7358 163.767 7.5808 164.17 7.27081C164.573 6.96081 164.774 6.49582 164.774 5.87583C164.774 5.25583 164.573 4.79084 164.17 4.48085C163.767 4.15676 163.35 3.99472 162.919 3.99472H160.314V7.7358H162.94Z" fill="#4F5B84"/>
    <path d="M29.5099 12.9349H35.1596C35.6166 12.9349 35.9489 12.9901 36.1566 13.1006C36.3643 13.1972 36.5028 13.356 36.572 13.5769C36.6413 13.7978 36.6759 14.0946 36.6759 14.4674C36.6759 14.8264 36.6413 15.1163 36.572 15.3372C36.5028 15.5581 36.3851 15.71 36.2189 15.7928C35.9558 15.9309 35.5958 15.9999 35.1388 15.9999H27.6612C26.6919 15.9999 26.1242 15.7376 25.958 15.2129C25.8749 14.992 25.8334 14.64 25.8334 14.1568V2.64225C25.8334 2.32471 25.8403 2.09 25.8541 1.93813C25.8818 1.77245 25.9511 1.58607 26.0619 1.37897C26.2557 1.0062 26.7958 0.819814 27.682 0.819814C28.6513 0.819814 29.226 1.07523 29.406 1.58607C29.4752 1.82077 29.5099 2.17974 29.5099 2.66296V12.9349Z" fill="url(#paint1_linear_364_123641)"/>
    <path d="M37.4011 2.64225C37.4011 2.32471 37.408 2.09 37.4219 1.93813C37.4496 1.77245 37.5188 1.58607 37.6296 1.37897C37.8234 1.0062 38.3635 0.819814 39.2497 0.819814C40.219 0.819814 40.7937 1.07523 40.9737 1.58607C41.043 1.82077 41.0776 2.17974 41.0776 2.66296V14.1775C41.0776 14.5088 41.0637 14.7504 41.036 14.9023C41.0222 15.0542 40.9599 15.2337 40.8491 15.4407C40.6552 15.8135 40.1152 15.9999 39.229 15.9999C38.2596 15.9999 37.6919 15.7376 37.5257 15.2129C37.4426 14.992 37.4011 14.64 37.4011 14.1568V2.64225Z" fill="url(#paint2_linear_364_123641)"/>
    <path d="M56.0086 1.04762C56.8256 1.448 57.2341 1.88981 57.2341 2.37303C57.2341 2.59393 57.1303 2.92528 56.9225 3.36709L51.1897 14.9644C51.0374 15.2682 50.802 15.5167 50.4835 15.71C50.1789 15.8895 49.8604 15.9792 49.528 15.9792H49.3203C48.9741 15.9792 48.6418 15.8895 48.3233 15.71C48.0187 15.5167 47.7902 15.2682 47.6379 14.9644L41.905 3.36709C41.6973 2.92528 41.5935 2.59393 41.5935 2.37303C41.5935 1.88981 42.002 1.448 42.819 1.04762C43.2759 0.81291 43.6221 0.695557 43.8575 0.695557C44.1068 0.695557 44.2937 0.723169 44.4183 0.778395C44.543 0.833621 44.6607 0.930265 44.7714 1.06833C44.8961 1.234 45.0068 1.42039 45.1038 1.62749C45.2146 1.82078 45.4846 2.39374 45.9139 3.34638C46.3431 4.28521 46.8001 5.28617 47.2847 6.34926C47.7833 7.41235 48.2471 8.42022 48.6764 9.37285C49.1195 10.3117 49.3688 10.8363 49.4242 10.9468L53.5784 1.876C53.6892 1.61368 53.7861 1.40658 53.8692 1.25471C54.1184 0.881943 54.4231 0.695557 54.7831 0.695557C55.1432 0.695557 55.5517 0.81291 56.0086 1.04762Z" fill="url(#paint3_linear_364_123641)"/>
    <path d="M61.4341 12.3343H67.8316C68.1501 12.3343 68.3855 12.3481 68.5378 12.3757C68.704 12.3895 68.8909 12.4517 69.0986 12.5621C69.4725 12.7554 69.6595 13.2939 69.6595 14.1775C69.6595 15.1439 69.4033 15.71 68.8909 15.8756C68.6555 15.9585 68.2955 15.9999 67.8108 15.9999H59.5855C58.6161 15.9999 58.0484 15.7376 57.8822 15.2129C57.7992 14.992 57.7576 14.64 57.7576 14.1568V2.64225C57.7576 1.93813 57.8892 1.46181 58.1523 1.21329C58.4154 0.950974 58.9139 0.819814 59.6478 0.819814H67.8316C68.1501 0.819814 68.3855 0.83362 68.5378 0.861233C68.704 0.875039 68.8909 0.937168 69.0986 1.04762C69.4725 1.24091 69.6595 1.77936 69.6595 2.66296C69.6595 3.62941 69.4033 4.19547 68.8909 4.36114C68.6555 4.44398 68.2955 4.4854 67.8108 4.4854H61.4341V6.57707H65.5468C65.8653 6.57707 66.1007 6.59087 66.253 6.61848C66.4192 6.63229 66.6061 6.69442 66.8138 6.80487C67.1877 6.99816 67.3746 7.53661 67.3746 8.42021C67.3746 9.38666 67.1115 9.95272 66.5853 10.1184C66.3499 10.2012 65.9899 10.2427 65.5052 10.2427H61.4341V12.3343Z" fill="url(#paint4_linear_364_123641)"/>
    <defs>
        <linearGradient id="paint0_linear_364_123641" x1="14.7477" y1="1.15015" x2="0.975923" y2="15.3643" gradientUnits="userSpaceOnUse">
            <stop stop-color="#4F5B84"/>
            <stop offset="0.182292" stop-color="#93699C"/>
            <stop offset="0.390625" stop-color="#D7779B"/>
            <stop offset="0.59375" stop-color="#FF9384"/>
            <stop offset="0.78125" stop-color="#FFC16C"/>
            <stop offset="1" stop-color="#F9F871"/>
        </linearGradient>
        <linearGradient id="paint1_linear_364_123641" x1="69.6502" y1="16.0394" x2="25.859" y2="1.53903" gradientUnits="userSpaceOnUse">
            <stop stop-color="#4F5B84"/>
            <stop offset="0.182292" stop-color="#93699C"/>
            <stop offset="0.390625" stop-color="#D7779B"/>
            <stop offset="0.59375" stop-color="#FF9384"/>
            <stop offset="0.78125" stop-color="#FFC16C"/>
            <stop offset="1" stop-color="#F9F871"/>
        </linearGradient>
        <linearGradient id="paint2_linear_364_123641" x1="69.6502" y1="16.0394" x2="25.859" y2="1.53903" gradientUnits="userSpaceOnUse">
            <stop stop-color="#4F5B84"/>
            <stop offset="0.182292" stop-color="#93699C"/>
            <stop offset="0.390625" stop-color="#D7779B"/>
            <stop offset="0.59375" stop-color="#FF9384"/>
            <stop offset="0.78125" stop-color="#FFC16C"/>
            <stop offset="1" stop-color="#F9F871"/>
        </linearGradient>
        <linearGradient id="paint3_linear_364_123641" x1="69.6502" y1="16.0394" x2="25.859" y2="1.53903" gradientUnits="userSpaceOnUse">
            <stop stop-color="#4F5B84"/>
            <stop offset="0.182292" stop-color="#93699C"/>
            <stop offset="0.390625" stop-color="#D7779B"/>
            <stop offset="0.59375" stop-color="#FF9384"/>
            <stop offset="0.78125" stop-color="#FFC16C"/>
            <stop offset="1" stop-color="#F9F871"/>
        </linearGradient>
        <linearGradient id="paint4_linear_364_123641" x1="69.6502" y1="16.0394" x2="25.859" y2="1.53903" gradientUnits="userSpaceOnUse">
            <stop stop-color="#4F5B84"/>
            <stop offset="0.182292" stop-color="#93699C"/>
            <stop offset="0.390625" stop-color="#D7779B"/>
            <stop offset="0.59375" stop-color="#FF9384"/>
            <stop offset="0.78125" stop-color="#FFC16C"/>
            <stop offset="1" stop-color="#F9F871"/>
        </linearGradient>
    </defs>
</svg>
