<svg width="28" height="31" viewBox="0 0 28 31" fill="none" xmlns="http://www.w3.org/2000/svg">
    <path d="M0.399392 14.3898C0.399392 14.3898 -0.608006 12.9214 0.861264 11.9149C2.32875 10.9084 3.33526 12.3759 3.33526 12.3759L8.00827 19.1909C8.16934 18.9222 8.34555 18.657 8.54222 18.3953L2.05644 8.93808C2.05644 8.93808 1.04993 7.47059 2.51831 6.46409C3.9858 5.45758 4.99231 6.92507 4.99231 6.92507L11.0928 15.8217C11.3197 15.6366 11.552 15.4506 11.7913 15.2681L4.7191 4.95299C4.7191 4.95299 3.71259 3.4855 5.18097 2.47899C6.64846 1.47249 7.65497 2.93998 7.65497 2.93998L14.7272 13.2533C14.9871 13.094 15.2443 12.9561 15.5023 12.8102L8.89197 3.17047C8.89197 3.17047 7.88546 1.70298 9.35295 0.696469C10.8204 -0.310039 11.8269 1.15745 11.8269 1.15745L18.8164 11.3507L19.879 12.9009C15.4756 15.9213 15.0565 21.6035 17.5723 25.2727C18.0751 26.0069 18.8093 25.5041 18.8093 25.5041C15.7898 21.0998 16.7118 16.1509 21.116 13.1314L19.8176 6.63317C19.8176 6.63317 19.3326 4.92095 21.0439 4.43505C22.7561 3.95004 23.242 5.66226 23.242 5.66226L24.7416 10.1155C25.336 11.8811 25.9688 13.6405 26.8062 15.3046C29.1707 20.0034 27.7584 25.8431 23.2999 28.9018C18.4364 32.2364 11.7878 30.9967 8.45234 26.1341L0.399392 14.3898Z" fill="#FFDC5D"/>
</svg>
