<svg width="32" height="32" viewBox="0 0 32 32" fill="none" xmlns="http://www.w3.org/2000/svg">
    <path d="M4.32623 8.1031C5.16276 7.51842 6.42379 7.63055 7.17488 8.25083L6.31343 6.9987C5.62018 6.00999 5.86847 4.9403 6.85807 4.24616C7.84767 3.55468 10.6518 5.41374 10.6518 5.41374C9.95235 4.41524 10.0832 3.14977 11.0817 2.44939C12.0802 1.75169 13.4578 1.99286 14.1573 2.99314L23.4303 16.0929L22.2485 27.5507L12.3854 23.9536L3.78248 11.1983C3.07677 10.1935 3.32061 8.80792 4.32623 8.1031Z" fill="#EF9645"/>
    <path d="M2.39939 15.3898C2.39939 15.3898 1.39199 13.9214 2.86126 12.9149C4.32875 11.9084 5.33526 13.3759 5.33526 13.3759L10.0083 20.1909C10.1693 19.9222 10.3456 19.657 10.5422 19.3953L4.05644 9.93808C4.05644 9.93808 3.04993 8.4706 4.51831 7.46409C5.9858 6.45758 6.99231 7.92507 6.99231 7.92507L13.0928 16.8217C13.3197 16.6366 13.552 16.4506 13.7913 16.2681L6.7191 5.95299C6.7191 5.95299 5.71259 4.4855 7.18097 3.47899C8.64846 2.47249 9.65497 3.93998 9.65497 3.93998L16.7272 14.2533C16.9871 14.094 17.2443 13.9561 17.5023 13.8102L10.892 4.17047C10.892 4.17047 9.88546 2.70298 11.3529 1.69647C12.8204 0.689961 13.8269 2.15745 13.8269 2.15745L20.8164 12.3507L21.879 13.9009C17.4756 16.9213 17.0565 22.6035 19.5723 26.2727C20.0751 27.0069 20.8093 26.5041 20.8093 26.5041C17.7898 22.0998 18.7118 17.1509 23.116 14.1314L21.8176 7.63317C21.8176 7.63317 21.3326 5.92095 23.0439 5.43505C24.7561 4.95004 25.242 6.66226 25.242 6.66226L26.7416 11.1155C27.336 12.8811 27.9688 14.6405 28.8062 16.3046C31.1707 21.0034 29.7584 26.8431 25.2999 29.9018C20.4364 33.2364 13.7878 31.9967 10.4523 27.1341L2.39939 15.3898Z" fill="#FFDC5D"/>
    <path d="M10.6788 28.4764C7.11913 28.4764 3.52204 24.8793 3.52204 21.3196C3.52204 20.8275 3.16162 20.4297 2.66949 20.4297C2.17736 20.4297 1.74219 20.8275 1.74219 21.3196C1.74219 26.6592 5.33927 30.2563 10.6788 30.2563C11.171 30.2563 11.5688 29.8211 11.5688 29.329C11.5688 28.8368 11.171 28.4764 10.6788 28.4764Z" fill="#5DADEC"/>
    <path d="M6.22949 30.2199C3.55971 30.2199 1.77985 28.44 1.77985 25.7702C1.77985 25.2781 1.38206 24.8803 0.889927 24.8803C0.397797 24.8803 0 25.2781 0 25.7702C0 29.3299 2.66978 31.9997 6.22949 31.9997C6.72162 31.9997 7.11942 31.6019 7.11942 31.1098C7.11942 30.6177 6.72162 30.2199 6.22949 30.2199ZM21.3583 1.74219C20.867 1.74219 20.4683 2.14087 20.4683 2.63211C20.4683 3.12335 20.867 3.52204 21.3583 3.52204C24.918 3.52204 28.4777 6.71599 28.4777 10.6415C28.4777 11.1327 28.8764 11.5314 29.3676 11.5314C29.8588 11.5314 30.2575 11.1327 30.2575 10.6415C30.2575 5.7344 26.6978 1.74219 21.3583 1.74219Z" fill="#5DADEC"/>
    <path d="M25.8079 0C25.3167 0 24.918 0.36131 24.918 0.85255C24.918 1.34379 25.3167 1.77985 25.8079 1.77985C28.4777 1.77985 30.2202 3.75994 30.2202 6.19211C30.2202 6.68335 30.6553 7.08204 31.1475 7.08204C31.6396 7.08204 32 6.68335 32 6.19211C32 2.77746 29.3676 0 25.8079 0Z" fill="#5DADEC"/>
</svg>
