<svg width="19" height="20" viewBox="0 0 19 20" fill="none" xmlns="http://www.w3.org/2000/svg">
<path fill-rule="evenodd" clip-rule="evenodd" d="M7.00003 0C6.55355 0 6.16116 0.295977 6.03851 0.725279L5.2781 3.38671L2.64145 3.01005C2.19383 2.94611 1.759 3.19048 1.58088 3.60608L0.0808842 7.10608C-0.0801912 7.48192 0.00378326 7.91797 0.292922 8.20711L2.08582 10L0.292922 11.7929C-0.0259481 12.1118 -0.0919483 12.6046 0.131786 12.9961L2.13179 16.4961C2.33947 16.8596 2.75153 17.0552 3.16443 16.9864L5.28378 16.6332L6.03851 19.2747C6.16116 19.704 6.55355 20 7.00003 20H12C12.4465 20 12.8389 19.704 12.9616 19.2747L13.7163 16.6332L15.8356 16.9864C16.2485 17.0552 16.6606 16.8596 16.8683 16.4961L18.8683 12.9961C19.092 12.6046 19.026 12.1118 18.7071 11.7929L16.9142 10L18.7071 8.20711C18.9963 7.91797 19.0802 7.48192 18.9192 7.10608L17.4192 3.60608C17.2411 3.19048 16.8062 2.94611 16.3586 3.01005L13.722 3.38671L12.9616 0.725279C12.8389 0.295977 12.4465 0 12 0H7.00003ZM6.96155 4.77472L7.75433 2H11.2457L12.0385 4.77472C12.1758 5.25523 12.6467 5.56062 13.1415 5.48995L15.8828 5.09833L16.8142 7.27163L14.7929 9.29289C14.4024 9.68342 14.4024 10.3166 14.7929 10.7071L16.7528 12.667L15.4774 14.8991L13.1644 14.5136C12.6628 14.43 12.1782 14.7363 12.0385 15.2253L11.2457 18H7.75433L6.96155 15.2253C6.82183 14.7363 6.33731 14.43 5.83563 14.5136L3.52269 14.8991L2.24722 12.667L4.20714 10.7071C4.59766 10.3166 4.59766 9.68342 4.20714 9.29289L2.18587 7.27163L3.11728 5.09833L5.85861 5.48995C6.35332 5.56062 6.82426 5.25523 6.96155 4.77472ZM9.50003 12C8.39546 12 7.50003 11.1046 7.50003 10C7.50003 8.89543 8.39546 8 9.50003 8C10.6046 8 11.5 8.89543 11.5 10C11.5 11.1046 10.6046 12 9.50003 12ZM5.50003 10C5.50003 7.79086 7.29089 6 9.50003 6C11.7092 6 13.5 7.79086 13.5 10C13.5 12.2091 11.7092 14 9.50003 14C7.29089 14 5.50003 12.2091 5.50003 10Z" fill="#4F5B84"/>
</svg>
