<svg width="54" height="48" viewBox="0 0 54 48" fill="none" xmlns="http://www.w3.org/2000/svg">
    <path fill-rule="evenodd" clip-rule="evenodd" d="M27.9416 5.57175C27.3361 5.31525 26.6607 5.31525 26.0552 5.57175L15.7244 9.9482L27.027 14.2233L38.6653 10.1147L27.9416 5.57175ZM9.31567 13.2363L6.52477 18.4089L20.6926 24.4109L23.4451 18.5807L9.31567 13.2363ZM34.4542 25.7436L30.7045 18.5954L45.2669 13.4545L47.7903 19.6904L34.4542 25.7436ZM48.2588 8.38499C49.3235 8.83605 49.6654 10.6667 49.8464 11.1152L53.4594 20.0436C54.0119 21.409 53.4147 22.9902 52.1255 23.5753L49.8552 24.6058V35.1844C49.8552 36.2263 49.2871 37.1745 48.397 37.6181L28.0797 47.744C27.3949 48.0853 26.6019 48.0853 25.917 47.744L5.59979 37.6181C4.70966 37.1745 4.14151 36.2263 4.14151 35.1844V23.1931L1.92848 22.2556C1.24626 21.9666 0.715662 21.3788 0.473693 20.644C0.231723 19.9092 0.3021 19.0995 0.666653 18.4238L5.73561 9.02909C5.86457 8.78509 6.02969 8.56153 6.22691 8.36844C6.25874 8.33728 6.2914 8.30691 6.32489 8.27737C6.53694 8.09031 6.77462 7.94309 7.0272 7.83883L24.1688 0.577127C25.9852 -0.192375 28.0115 -0.192376 29.828 0.577126L46.9723 7.83997L47.0033 7.85314L48.2588 8.38499ZM34.3479 31.6444L44.7759 26.9112V33.4775L29.538 41.072V27.4484L31.1274 30.4784C31.7599 31.6841 33.1509 32.1877 34.3479 31.6444ZM24.4587 28.4623L24.1906 29.0302C23.5999 30.2814 22.2022 30.8442 20.9759 30.3247L9.22082 25.3448V33.4775L24.4587 41.072V28.4623Z" fill="#4F5B84"/>
</svg>
