<svg width="44" height="54" viewBox="0 0 44 54" fill="none" xmlns="http://www.w3.org/2000/svg">
    <path fill-rule="evenodd" clip-rule="evenodd" d="M8.66797 3.00065C8.66797 1.52789 9.86188 0.333984 11.3346 0.333984C12.8074 0.333984 14.0013 1.52789 14.0013 3.00065V5.66732H19.3346V3.00065C19.3346 1.52789 20.5285 0.333984 22.0013 0.333984C23.4741 0.333984 24.668 1.52789 24.668 3.00065V5.66732H30.0013V3.00065C30.0013 1.52789 31.1952 0.333984 32.668 0.333984C34.1407 0.333984 35.3346 1.52789 35.3346 3.00065V5.66732C39.7529 5.66732 43.3346 9.24904 43.3346 13.6673V45.6673C43.3346 50.0856 39.7529 53.6673 35.3346 53.6673H8.66797C4.24969 53.6673 0.667969 50.0856 0.667969 45.6673V13.6673C0.667969 9.24904 4.24969 5.66732 8.66797 5.66732V3.00065ZM24.668 11.0007H30.0013V13.6673C30.0013 15.1401 31.1952 16.334 32.668 16.334C34.1407 16.334 35.3346 15.1401 35.3346 13.6673V11.0007C36.8074 11.0007 38.0013 12.1946 38.0013 13.6673V45.6673C38.0013 47.1401 36.8074 48.334 35.3346 48.334H8.66797C7.19521 48.334 6.0013 47.1401 6.0013 45.6673V13.6673C6.0013 12.1946 7.19521 11.0007 8.66797 11.0007V13.6673C8.66797 15.1401 9.86188 16.334 11.3346 16.334C12.8074 16.334 14.0013 15.1401 14.0013 13.6673V11.0007H19.3346V13.6673C19.3346 15.1401 20.5285 16.334 22.0013 16.334C23.4741 16.334 24.668 15.1401 24.668 13.6673V11.0007ZM20.668 24.334C20.668 22.8612 19.4741 21.6673 18.0013 21.6673C16.5285 21.6673 15.3346 22.8612 15.3346 24.334V35.0007C15.3346 35.8923 15.7802 36.7249 16.5221 37.2195L24.5221 42.5528C25.7475 43.3697 27.4032 43.0386 28.2201 41.8132C29.037 40.5878 28.7059 38.9321 27.4805 38.1152L20.668 33.5735V24.334Z" fill="#4F5B84"/>
</svg>