<svg width="54" height="48" viewBox="0 0 54 48" fill="none" xmlns="http://www.w3.org/2000/svg">
<path fill-rule="evenodd" clip-rule="evenodd" d="M2.9987 0C1.52594 0 0.332031 1.19391 0.332031 2.66667C0.332031 4.13943 1.52594 5.33333 2.9987 5.33333V2.66667L2.99873 5.33333H2.99884H2.99927H2.99958H2.99997H3.00043H3.00096H3.00377H3.00769H3.01006H3.01135H3.0127H3.01879H3.02596H3.02791H3.02994H3.03418H3.13672H3.51953H4.83203H6.20342L12.3983 32.591C12.7178 33.9964 14.0929 34.888 15.4975 34.6196C15.6598 34.6505 15.8274 34.6667 15.9987 34.6667H42.9987C44.1103 34.6667 45.1053 33.9771 45.4956 32.9363L53.4956 11.603C53.8027 10.7841 53.6887 9.86661 53.1905 9.14775C52.6923 8.42888 51.8733 8 50.9987 8H12.2788L10.9324 2.07568C10.6565 0.861575 9.5771 0 8.33203 0H4.83203H3.51953H3.13672H3.12043H3.10512H3.10144H3.09783H3.09078H3.07743H3.05376H3.05108H3.04847H3.04593H3.04345H3.04103H3.03868H3.03418H3.01879H3.0127H3.01135H3.01006H3.00769H3.00096H2.99997H2.99958H2.99927H2.99884H2.99873L2.9987 2.66667V0ZM13.4909 13.3333L17.1273 29.3333H41.1507L47.1507 13.3333H13.4909ZM21.6654 37.3333C18.7198 37.3333 16.332 39.7211 16.332 42.6667C16.332 45.6122 18.7198 48 21.6654 48C24.6109 48 26.9987 45.6122 26.9987 42.6667C26.9987 39.7211 24.6109 37.3333 21.6654 37.3333ZM32.332 42.6667C32.332 39.7211 34.7198 37.3333 37.6654 37.3333C40.6109 37.3333 42.9987 39.7211 42.9987 42.6667C42.9987 45.6122 40.6109 48 37.6654 48C34.7198 48 32.332 45.6122 32.332 42.6667Z" fill="#4F5B84"/>
</svg>
