<svg width="54" height="54" viewBox="0 0 54 54" fill="none" xmlns="http://www.w3.org/2000/svg">
    <path fill-rule="evenodd" clip-rule="evenodd" d="M12.8843 1.11503C13.9257 2.15643 13.9257 3.84487 12.8843 4.88627L4.88432 12.8863C3.84292 13.9277 2.15448 13.9277 1.11308 12.8863C0.0716817 11.8449 0.0716817 10.1564 1.11308 9.11503L9.11308 1.11503C10.1545 0.0736348 11.8429 0.0736348 12.8843 1.11503ZM41.1131 4.88627C40.0717 3.84487 40.0717 2.15643 41.1131 1.11503C42.1545 0.0736348 43.8429 0.0736348 44.8843 1.11503L52.8843 9.11503C53.9257 10.1564 53.9257 11.8449 52.8843 12.8863C51.8429 13.9277 50.1545 13.9277 49.1131 12.8863L41.1131 4.88627ZM45.6654 29.6673C45.6654 39.9766 37.308 48.334 26.9987 48.334C16.6894 48.334 8.33203 39.9766 8.33203 29.6673C8.33203 19.358 16.6894 11.0007 26.9987 11.0007C37.308 11.0007 45.6654 19.358 45.6654 29.6673ZM50.9987 29.6673C50.9987 42.9222 40.2535 53.6673 26.9987 53.6673C13.7439 53.6673 2.9987 42.9222 2.9987 29.6673C2.9987 16.4125 13.7439 5.66732 26.9987 5.66732C40.2535 5.66732 50.9987 16.4125 50.9987 29.6673ZM29.6654 19.0007C29.6654 17.5279 28.4715 16.334 26.9987 16.334C25.5259 16.334 24.332 17.5279 24.332 19.0007V30.6673C24.332 31.4363 24.664 32.1678 25.2427 32.6742L33.2427 39.6742C34.351 40.644 36.0358 40.5317 37.0056 39.4233C37.9754 38.315 37.8631 36.6303 36.7547 35.6604L29.6654 29.4573V19.0007Z" fill="#4F5B84"/>
</svg>
