<svg width="54" height="44" viewBox="0 0 54 44" fill="none" xmlns="http://www.w3.org/2000/svg">
    <path fill-rule="evenodd" clip-rule="evenodd" d="M0.332031 8.66602V35.3327C0.332031 39.751 3.91375 43.3327 8.33203 43.3327H45.6654C50.0836 43.3327 53.6654 39.751 53.6654 35.3327V8.66602C53.6654 4.24774 50.0836 0.666016 45.6654 0.666016H8.33203C3.91375 0.666016 0.332031 4.24774 0.332031 8.66602ZM8.33203 37.9994C6.85927 37.9994 5.66537 36.8054 5.66537 35.3327L5.66536 8.66602C5.66536 7.19326 6.85927 5.99935 8.33203 5.99935L45.6654 5.99935C47.1381 5.99935 48.332 7.19326 48.332 8.66602V35.3327C48.332 36.8054 47.1381 37.9994 45.6654 37.9994H8.33203ZM39.4412 11.3327C39.4412 9.85993 38.2473 8.66602 36.7746 8.66602C35.3018 8.66602 34.1079 9.85993 34.1079 11.3327V11.7517C31.5689 12.2958 29.6654 14.5527 29.6654 17.2541C29.6654 20.3621 32.1848 22.8815 35.2928 22.8815H38.2615C38.424 22.8815 38.5556 23.0132 38.5556 23.1756C38.5556 23.338 38.424 23.4696 38.2616 23.4696H33.0729C31.6001 23.4696 30.4062 24.6635 30.4062 26.1363C30.4062 27.6091 31.6001 28.803 33.0729 28.803H34.1079V29.097C34.1079 30.5698 35.3018 31.7637 36.7746 31.7637C38.2473 31.7637 39.4412 30.5698 39.4412 29.097V28.6791C41.9828 28.137 43.8889 25.8789 43.8889 23.1756C43.8889 20.0676 41.3695 17.5482 38.2615 17.5482H35.2928C35.1304 17.5482 34.9987 17.4165 34.9987 17.2541C34.9987 17.0917 35.1304 16.9601 35.2928 16.9601H40.4814C41.9542 16.9601 43.1481 15.7662 43.1481 14.2934C43.1481 12.8206 41.9542 11.6267 40.4814 11.6267H39.4412V11.3327ZM8.33203 24.666C8.33203 23.1933 9.52594 21.9994 10.9987 21.9994H18.9987C20.4715 21.9994 21.6654 23.1933 21.6654 24.666C21.6654 26.1388 20.4715 27.3327 18.9987 27.3327H10.9987C9.52594 27.3327 8.33203 26.1388 8.33203 24.666ZM10.9987 29.9994C9.52594 29.9994 8.33203 31.1933 8.33203 32.666C8.33203 34.1388 9.52594 35.3327 10.9987 35.3327H25.6654C27.1381 35.3327 28.332 34.1388 28.332 32.666C28.332 31.1933 27.1381 29.9994 25.6654 29.9994H10.9987Z" fill="#4F5B84"/>
</svg>
