<svg width="54" height="54" viewBox="0 0 54 54" fill="none" xmlns="http://www.w3.org/2000/svg">
    <path fill-rule="evenodd" clip-rule="evenodd" d="M26.9987 53.6673C12.2711 53.6673 0.332031 41.7282 0.332031 27.0007C0.332031 12.2731 12.2711 0.333984 26.9987 0.333984C41.7263 0.333984 53.6654 12.2731 53.6654 27.0007C53.6654 41.7282 41.7263 53.6673 26.9987 53.6673ZM26.9987 5.66732C26.498 5.66732 26.0013 5.68457 25.5093 5.7185C25.4181 5.83402 25.3198 5.96141 25.2154 6.10065C24.5503 6.98742 23.6378 8.35191 22.7172 10.1932C21.8892 11.8492 21.0521 13.8954 20.3824 16.334H33.615C32.9453 13.8954 32.1082 11.8492 31.2802 10.1932C30.3596 8.35191 29.4471 6.98742 28.782 6.10065C28.6776 5.96141 28.5793 5.83402 28.4881 5.7185C27.9961 5.68457 27.4994 5.66732 26.9987 5.66732ZM13.6654 27.0007C13.6654 25.1214 13.7699 23.3435 13.9562 21.6673H6.33746C5.89871 23.372 5.66536 25.1591 5.66536 27.0007C5.66536 28.8423 5.89871 30.6293 6.33746 32.334H13.9562C13.7699 30.6578 13.6654 28.8799 13.6654 27.0007ZM14.8779 37.6673H8.51939C10.7121 41.4578 14.0376 44.5111 18.0329 46.3641L17.9469 46.1932C16.8117 43.9229 15.6888 41.0797 14.8779 37.6673ZM20.3824 37.6673L33.615 37.6673C32.9453 40.1059 32.1082 42.1521 31.2802 43.8081C30.3596 45.6494 29.4471 47.0139 28.782 47.9007C28.6776 48.0399 28.5793 48.1673 28.4881 48.2828C27.9961 48.3167 27.4994 48.334 26.9987 48.334C26.498 48.334 26.0013 48.3167 25.5093 48.2828C25.4181 48.1673 25.3198 48.0399 25.2154 47.9007C24.5503 47.0139 23.6378 45.6494 22.7172 43.8081C21.8892 42.1521 21.0521 40.1059 20.3824 37.6673ZM34.6706 32.334L19.3268 32.334C19.1184 30.6796 18.9987 28.902 18.9987 27.0007C18.9987 25.0993 19.1184 23.3217 19.3268 21.6673H34.6706C34.879 23.3217 34.9987 25.0993 34.9987 27.0007C34.9987 28.902 34.879 30.6796 34.6706 32.334ZM39.1195 37.6673C38.3086 41.0797 37.1857 43.9229 36.0505 46.1932L35.9645 46.3641C39.9598 44.5111 43.2853 41.4578 45.478 37.6673H39.1195ZM47.6599 32.334H40.0412C40.2275 30.6578 40.332 28.8799 40.332 27.0007C40.332 25.1214 40.2275 23.3435 40.0412 21.6673H47.6599C48.0987 23.372 48.332 25.1591 48.332 27.0007C48.332 28.8422 48.0987 30.6293 47.6599 32.334ZM17.9469 7.80808C16.8117 10.0785 15.6888 12.9216 14.8779 16.334H8.51939C10.7121 12.5435 14.0376 9.49024 18.0329 7.63717L17.9469 7.80808ZM35.9645 7.63717C39.9598 9.49024 43.2853 12.5435 45.478 16.334H39.1195C38.3086 12.9216 37.1857 10.0785 36.0505 7.80808L35.9645 7.63717Z" fill="#4F5B84"/>
</svg>
