<svg width="37" height="36" viewBox="0 0 37 36" fill="none" xmlns="http://www.w3.org/2000/svg">
    <path d="M28.6733 10.8194C29.0239 8.53332 28.6733 7.00927 27.4461 5.60245C26.102 4.01979 23.6477 3.375 20.492 3.375H11.4342C10.7914 3.375 10.2654 3.84394 10.1486 4.48873L6.35012 28.5218C6.29168 28.9907 6.64231 29.401 7.10981 29.401H12.7198L12.3108 31.863C12.2523 32.2733 12.5445 32.625 13.012 32.625H17.7455C18.3298 32.625 18.7973 32.2147 18.8558 31.6871L19.8492 25.4737C19.9077 24.9461 20.4336 24.5358 20.9595 24.5358H21.6608C26.2189 24.5358 29.842 22.6601 30.8939 17.2673C31.303 15.0398 31.1277 13.1055 29.9589 11.8159C29.6083 11.4056 29.1992 11.1125 28.6733 10.8194Z" fill="#009CDE"/>
    <path d="M28.6733 10.8194C29.0239 8.53332 28.6733 7.00927 27.4461 5.60245C26.102 4.01979 23.6477 3.375 20.492 3.375H11.4342C10.7914 3.375 10.2654 3.84394 10.1486 4.48873L6.35012 28.5218C6.29168 28.9907 6.64231 29.401 7.10981 29.401H12.7198L14.0639 20.7257C14.1808 20.0809 14.7067 19.612 15.3495 19.612H18.0376C23.297 19.612 27.3877 17.5018 28.5564 11.2883C28.6149 11.1711 28.6149 10.9952 28.6733 10.8194Z" fill="#012169"/>
    <path d="M15.6417 10.878C15.7001 10.4677 16.2261 9.94013 16.752 9.94013H23.8814C24.6995 9.94013 25.5177 9.99875 26.2189 10.116C26.8617 10.2332 28.0305 10.5263 28.6149 10.878C28.9655 8.59193 28.6149 7.06789 27.3877 5.66107C26.102 4.01979 23.6477 3.375 20.492 3.375H11.4342C10.7914 3.375 10.2654 3.84394 10.1486 4.48873L6.35012 28.5218C6.29168 28.9907 6.64231 29.401 7.10981 29.401H12.7198L15.6417 10.878Z" fill="#003087"/>
</svg>
