<svg width="38" height="36" viewBox="0 0 38 36" fill="none" xmlns="http://www.w3.org/2000/svg">
    <g clip-path="url(#clip0_2932_508583)">
        <path d="M13.6451 25.8151C13.8786 25.7111 14.1152 25.6155 14.354 25.5258C14.6237 25.4245 14.8955 25.3292 15.171 25.2462C15.5139 25.1429 15.8596 25.0495 16.21 24.9751C16.6829 24.8745 17.161 24.8006 17.6421 24.7538C17.3702 25.6068 17.0727 26.4515 16.75 27.2866C16.7633 27.4497 16.7718 27.613 16.7756 27.7766C17.4387 27.6455 18.1131 27.5794 18.7891 27.5793C19.4782 27.5793 20.151 27.648 20.8025 27.7766C20.8063 27.613 20.8148 27.4497 20.8281 27.2866C20.5054 26.4515 20.2079 25.6068 19.936 24.7538C20.4176 24.8005 20.8956 24.8748 21.3681 24.9751C21.7184 25.0495 22.0641 25.1429 22.407 25.2462C22.6826 25.3292 22.9544 25.4245 23.2241 25.5258C23.463 25.6156 23.6997 25.7112 23.9333 25.8152C25.6216 26.5658 27.1256 27.676 28.3402 29.0683C31.4457 26.3865 33.4141 22.4234 33.4141 17.998C33.4141 9.92093 26.8662 3.37305 18.7891 3.37305C10.7119 3.37305 4.16406 9.92093 4.16406 17.998C4.16406 22.4234 6.13238 26.3864 9.23791 29.0683C10.4526 27.676 11.9567 26.5657 13.6451 25.8151" fill="#A5DBE8"/>
        <path d="M23.9348 25.8154L24.8427 28.9373L25.1003 28.9494C25.2674 28.9494 25.385 28.9934 25.385 29.1605C25.385 29.4384 25.3994 29.7507 25.426 30.0233C25.6523 30.2153 25.9277 30.432 26.1366 30.6424C26.9187 30.187 27.6569 29.66 28.3418 29.0684C27.1271 27.6762 25.6231 26.566 23.9348 25.8154V25.8154ZM22.1596 25.7842L23.2256 25.526C22.956 25.4246 22.6842 25.3293 22.4086 25.2464C22.0657 25.1431 21.7199 25.0496 21.3696 24.9752C20.8968 24.8747 20.4186 24.8008 19.9375 24.7539C20.2094 25.6069 20.5069 26.4516 20.8296 27.2868C20.8163 27.4498 20.8078 27.6132 20.804 27.7767C21.5594 27.9257 22.3021 28.1846 22.9888 28.4883L22.1596 25.7842" fill="#525353"/>
        <path d="M11.4414 30.6431C11.6112 30.7421 11.7827 30.8386 11.9571 30.9308C12.0181 30.6378 12.1156 30.2317 12.1451 29.9302C11.9189 30.1222 11.6503 30.4327 11.4414 30.6431ZM22.9677 28.462C22.273 28.1543 21.5462 27.9247 20.8008 27.7774C20.1377 27.6463 19.4634 27.5802 18.7874 27.5801C18.0982 27.5801 17.4254 27.6489 16.7739 27.7774C16.0187 27.9263 15.2307 28.1522 14.5442 28.4558L14.4712 28.9106H23.1038L22.9677 28.462" fill="black"/>
        <path d="M12.1204 30.0153C12.1472 29.7426 12.1665 29.4996 12.1665 29.2216C12.1665 29.0546 12.2811 28.9475 12.4482 28.9475L12.7223 28.9379L13.6454 25.8145C11.9571 26.5651 10.453 27.6753 9.23828 29.0676C9.92318 29.6592 10.6614 30.1861 11.4435 30.6416C11.6523 30.431 11.8701 30.2293 12.0961 30.0372" fill="#525353"/>
        <path d="M25.5371 30.5717C25.5963 30.8688 25.6097 30.928 25.6204 30.9302C25.7943 30.8378 25.9662 30.7419 26.1361 30.6424C25.925 30.4295 25.7049 30.2256 25.4766 30.0312L25.5371 30.5717" fill="black"/>
        <path d="M22.9676 28.4608L23.1036 28.9094H24.8693L23.9314 25.8148C23.6979 25.7113 23.4614 25.6148 23.2222 25.5254L22.1562 25.7836L22.9676 28.4608Z" fill="#AA9678"/>
        <path d="M12.7383 29.5352C12.7475 29.5287 12.7569 29.5222 12.766 29.5156H12.7395C12.7393 29.5221 12.7386 29.5287 12.7383 29.5352Z" fill="#C4B6A1"/>
        <path d="M24.8391 29.5156H24.8125L24.8403 29.5352C24.84 29.5287 24.8393 29.5221 24.8391 29.5156Z" fill="#AA9678"/>
        <path d="M24.8095 29.4707L18.7773 29.4776L18.7899 32.6237C21.0349 32.6237 23.161 32.1165 25.0619 31.2125C24.9379 30.6673 24.9254 30.08 24.9052 29.5085C24.896 29.5019 24.8095 29.4707 24.8095 29.4707" fill="#AA9678"/>
        <path d="M18.7778 29.4901C18.7778 29.4901 12.7125 29.4824 12.7032 29.489C12.6831 30.0606 12.5652 30.7388 12.5156 31.2121C14.4165 32.1161 16.5426 32.6233 18.7875 32.6233L18.7909 29.5003L18.7778 29.4901Z" fill="#C4B6A1"/>
        <path d="M23.3131 27.1563L23.3161 27.1657L23.3131 27.1563C23.3131 27.1563 23.1647 27.0387 22.9766 26.8223C23.1647 27.0387 23.3131 27.1563 23.3131 27.1563Z" fill="#AA9678"/>
        <path d="M27.7812 13.9238V13.9245V13.9238ZM28.3697 18.1346L28.3699 18.1303L28.3697 18.1346Z" fill="white"/>
        <path d="M28.354 17.904C28.3545 17.9079 28.3556 17.9113 28.3561 17.9152C28.3564 17.9176 28.3571 17.9198 28.3574 17.9221V17.923C28.3644 17.9788 28.367 18.0372 28.3683 18.0961C28.3685 18.1069 28.3704 18.1171 28.3704 18.1278L28.3705 18.1318L28.3704 18.1362C28.3702 18.1478 28.3683 18.1587 28.3682 18.1702C28.3674 18.227 28.3639 18.2836 28.3576 18.34V18.3408L28.356 18.3492C28.3555 18.3536 28.3541 18.3576 28.3536 18.362C28.3459 18.4202 28.3349 18.478 28.3208 18.5351L28.3205 18.5359V18.536L28.3226 18.5337L28.3234 18.5311V18.5312L28.7062 18.1305L28.3203 17.7266L28.3204 17.7274C28.3348 17.7837 28.3458 17.8429 28.354 17.904Z" fill="#676A6A"/>
        <path d="M28.3552 18.3617C28.3562 18.3542 28.3582 18.3474 28.3592 18.3398C28.366 18.2849 28.3685 18.2277 28.3698 18.17C28.37 18.157 28.372 18.1447 28.372 18.1316C28.372 18.1194 28.3702 18.108 28.37 18.0958C28.3693 18.038 28.3657 17.9802 28.3591 17.9227C28.3582 17.9161 28.3565 17.9103 28.3557 17.9038C28.3479 17.8443 28.3367 17.7853 28.3221 17.7271C28.3171 17.7075 28.3101 17.69 28.3043 17.671C28.2696 17.5565 28.2225 17.4554 28.1665 17.3714C28.145 17.3395 28.1216 17.309 28.0963 17.28C28.0732 17.2545 28.0479 17.2309 28.0207 17.2098C28.0106 17.2021 28 17.1967 27.9897 17.1901C27.9582 17.1694 27.9241 17.1529 27.8883 17.1411C27.8544 17.1299 27.8191 17.1238 27.7835 17.123C27.7476 17.123 27.7129 17.1306 27.6787 17.1411C27.6428 17.1529 27.6087 17.1693 27.5771 17.1901C27.5671 17.1967 27.5564 17.202 27.5464 17.2097C27.4994 17.2464 27.458 17.2898 27.4237 17.3387C27.4157 17.3494 27.408 17.3604 27.4005 17.3716C27.3445 17.4555 27.2972 17.5567 27.2627 17.6711L27.2584 17.6849C27.2431 17.7374 27.2312 17.7927 27.2212 17.8495C27.2183 17.8669 27.2143 17.8835 27.2119 17.9014C27.2027 17.9649 27.1981 18.0312 27.1969 18.099C27.1968 18.1084 27.1953 18.1173 27.1953 18.1267H27.1976C27.1976 18.6838 27.4612 19.1354 27.7862 19.1354C27.8422 19.1354 27.896 19.1207 27.9473 19.0957C27.9781 19.0806 28.0071 19.0623 28.0339 19.041C28.045 19.0321 28.0554 19.0213 28.066 19.0113C28.092 18.9871 28.1167 18.9596 28.1401 18.9291C28.1563 18.9078 28.1723 18.8864 28.1871 18.8625C28.1966 18.8473 28.2053 18.8309 28.2141 18.8146C28.2306 18.7842 28.2461 18.7526 28.2602 18.719C28.2654 18.7069 28.2708 18.6951 28.2756 18.6827C28.2935 18.6359 28.3092 18.5866 28.3224 18.5348C28.3365 18.4796 28.347 18.4216 28.3552 18.3617V18.3617ZM27.8046 17.9973C27.6827 17.9973 27.5839 17.8279 27.5839 17.619C27.5839 17.4103 27.6827 17.2408 27.8046 17.2408C27.9265 17.2408 28.0253 17.4103 28.0253 17.619C28.0253 17.8279 27.9265 17.9973 27.8046 17.9973Z" fill="black"/>
        <path d="M27.8028 17.2402C27.6809 17.2402 27.582 17.4097 27.582 17.6184C27.582 17.8273 27.6809 17.9968 27.8028 17.9968C27.9247 17.9968 28.0235 17.8273 28.0235 17.6184C28.0235 17.4097 27.9247 17.2402 27.8028 17.2402" fill="white"/>
        <path d="M27.2618 17.6705C27.2963 17.556 27.3436 17.4548 27.3996 17.3709C27.4072 17.3594 27.4148 17.3488 27.4228 17.338C27.457 17.289 27.4984 17.2456 27.5455 17.209C27.5555 17.2013 27.5662 17.196 27.5763 17.1894C27.6078 17.1686 27.642 17.1521 27.6779 17.1404C27.7119 17.1297 27.7468 17.1223 27.7826 17.1223C27.8185 17.1223 27.8534 17.1297 27.8874 17.1404C27.9233 17.1522 27.9574 17.1687 27.9889 17.1894C27.9992 17.196 28.0098 17.2014 28.0199 17.2091C28.0461 17.2292 28.0713 17.2529 28.0955 17.2793C28.1208 17.3083 28.1442 17.3388 28.1657 17.3707C28.2216 17.4547 28.2688 17.5559 28.3035 17.6703V17.6706L27.7826 15.2852L27.2617 17.6705H27.2618" fill="#909393"/>
        <path d="M20.8797 18.1081C20.879 18.0601 20.8759 18.0127 20.8706 17.966C20.8704 17.9655 20.8702 17.9648 20.8702 17.9641C20.8648 17.9185 20.8571 17.8732 20.8473 17.8284L20.8463 17.8249C20.8365 17.7812 20.8246 17.7379 20.8106 17.6954L20.8094 17.6925C20.7955 17.6503 20.7794 17.6088 20.7612 17.5682C20.761 17.5674 20.7604 17.5666 20.7601 17.5657C20.6149 17.2427 20.3516 16.9875 20.0241 16.8527L20.0201 16.8512C19.9404 16.8187 19.8579 16.7938 19.7735 16.7769C19.7714 16.7765 19.7693 16.7764 19.7671 16.7759C19.6801 16.7588 19.5916 16.7501 19.5028 16.75C19.4138 16.75 19.3273 16.7591 19.2431 16.7753L19.2342 16.7766C19.1505 16.7933 19.0697 16.8178 18.9921 16.8488L18.9859 16.8512C18.9075 16.8831 18.8321 16.9221 18.7609 16.9679C18.6897 17.0138 18.6229 17.066 18.5614 17.1237L18.5599 17.1284L18.5548 17.1296C18.4563 17.2232 18.3721 17.3308 18.3047 17.4488L18.3022 17.453C18.2816 17.4892 18.263 17.527 18.2458 17.5653C18.244 17.5695 18.2417 17.5733 18.24 17.5775C18.2244 17.613 18.2109 17.6498 18.1983 17.6868C18.1959 17.6941 18.1927 17.701 18.1904 17.7082C18.1794 17.7428 18.1705 17.7783 18.1621 17.8139C18.1599 17.8241 18.1566 17.834 18.1544 17.8441C18.1471 17.8793 18.1421 17.9153 18.1374 17.9514C18.136 17.9625 18.1336 17.9731 18.1325 17.9842C18.1181 18.121 18.1244 18.2592 18.1512 18.3942C18.1515 18.3959 18.1516 18.3978 18.152 18.3997C18.1693 18.4857 18.1946 18.5686 18.2272 18.6481C18.2277 18.6492 18.2279 18.6503 18.2285 18.6514C18.2944 18.8108 18.3896 18.9565 18.5091 19.081C18.6028 19.1787 18.7107 19.2624 18.8293 19.3294L18.831 19.3304C18.868 19.3512 18.9063 19.3699 18.9452 19.3873C18.9484 19.3887 18.9515 19.3905 18.9548 19.3919C18.9909 19.4076 19.0283 19.4212 19.0659 19.4339C19.0723 19.4361 19.0785 19.4388 19.0849 19.4409C19.1196 19.452 19.1555 19.4609 19.1914 19.4691C19.2011 19.4714 19.2104 19.4746 19.2203 19.4766C19.2551 19.4838 19.291 19.4888 19.3271 19.4934C19.338 19.4947 19.3487 19.4972 19.3598 19.4984C19.6816 19.5323 20.005 19.4516 20.2732 19.2705C20.4199 19.1714 20.5463 19.0451 20.6455 18.8984C20.7991 18.6709 20.8811 18.4025 20.8808 18.1279C20.8808 18.1246 20.8804 18.1216 20.8804 18.1185C20.8803 18.1149 20.8798 18.1116 20.8797 18.1081V18.1081ZM19.5028 17.9466C19.4349 17.9466 19.3675 17.9332 19.3047 17.9072C19.2419 17.8812 19.1849 17.843 19.1368 17.795C19.0887 17.7469 19.0506 17.6898 19.0246 17.627C18.9986 17.5642 18.9852 17.4969 18.9852 17.4289C18.9852 17.3609 18.9986 17.2936 19.0247 17.2308C19.0507 17.168 19.0888 17.111 19.1369 17.0629C19.185 17.0148 19.242 16.9767 19.3048 16.9507C19.3677 16.9247 19.435 16.9113 19.503 16.9113C19.6402 16.9113 19.7719 16.9659 19.869 17.063C19.9661 17.1601 20.0206 17.2917 20.0206 17.429C20.0205 17.5663 19.966 17.698 19.8689 17.795C19.7718 17.8921 19.6401 17.9466 19.5028 17.9466V17.9466Z" fill="black"/>
        <path d="M19.502 16.9121C19.3647 16.9121 19.233 16.9666 19.136 17.0637C19.0389 17.1608 18.9844 17.2924 18.9844 17.4297C18.9844 17.567 19.0389 17.6986 19.136 17.7957C19.233 17.8927 19.3647 17.9473 19.502 17.9473C19.6392 17.9473 19.7709 17.8927 19.868 17.7957C19.965 17.6986 20.0196 17.567 20.0196 17.4297C20.0196 17.2924 19.965 17.1608 19.868 17.0637C19.7709 16.9666 19.6392 16.9121 19.502 16.9121" fill="white"/>
        <path d="M18.5537 17.1302L18.5589 17.1291L18.5604 17.1244L19.5094 14.2221V13.5428L19.5093 13.5351C18.9736 13.4242 18.4281 13.368 17.8811 13.3672C17.6954 13.3672 17.5112 13.3751 17.3282 13.3875C17.3016 13.3894 17.2748 13.391 17.2481 13.393C16.2955 13.4653 15.3575 13.7136 14.4889 14.1101C13.7441 14.4502 13.052 14.8982 12.4299 15.4294V15.4295L12.4288 15.4304C12.2624 15.573 12.1011 15.7215 11.9454 15.8757C11.9162 15.9042 11.8865 15.9326 11.8575 15.9616C11.7103 16.1101 11.5679 16.2632 11.4306 16.4208C11.4007 16.4552 11.3714 16.4903 11.3419 16.525C11.2033 16.6877 11.0698 16.8547 10.9418 17.0258C10.9311 17.0402 10.9212 17.0553 10.9107 17.0697C10.7892 17.2355 10.6728 17.405 10.5615 17.5779C10.5397 17.6116 10.5173 17.6448 10.4959 17.6789C10.4057 17.822 10.3217 17.9691 10.2383 18.1165H14.5615L18.5537 17.1302Z" fill="#BBBCBD"/>
        <path d="M22.2059 16.8037C22.2147 16.6905 22.2219 16.5773 22.2277 16.464C22.2356 16.3107 22.2409 16.1571 22.2439 16.0037C22.2462 15.8845 22.2459 15.7652 22.2453 15.646C22.2453 15.6116 22.2461 15.5773 22.2457 15.5427C22.2422 15.2351 22.2309 14.9275 22.2118 14.6204L22.2092 14.6186L22.208 14.6165C22.0938 14.5508 21.9794 14.4855 21.8649 14.4204L21.8569 14.4158L21.7675 14.3652L21.7659 14.3643L21.7038 14.3296L21.6916 14.3227C21.6766 14.3144 21.6616 14.3062 21.6464 14.2982C21.4477 14.195 21.245 14.0998 21.0387 14.0126C20.547 13.805 19.8848 13.623 19.5117 13.5352V14.2221L20.4524 17.1291L20.4535 17.1315C20.5506 17.224 20.6341 17.3304 20.7011 17.4476V17.4477C20.723 17.4861 20.7431 17.5258 20.7613 17.5663C20.7617 17.5673 20.7622 17.5681 20.7624 17.5689C20.7806 17.6093 20.7966 17.6508 20.8106 17.6932L20.8118 17.696C20.8257 17.7384 20.8377 17.7816 20.8475 17.8256L20.8485 17.829C20.8583 17.8735 20.8659 17.9188 20.8714 17.9648C20.8714 17.9654 20.8716 17.9661 20.8718 17.9667C20.8771 18.0133 20.8802 18.0607 20.8809 18.1087L20.8844 18.1165H22.0363C22.1136 17.6938 22.1692 17.2674 22.2028 16.839C22.2036 16.8272 22.205 16.8154 22.2059 16.8037" fill="#E3DDDB"/>
        <path d="M18.5625 17.125C18.6244 17.067 18.6914 17.0147 18.7628 16.9688C18.8338 16.9232 18.9088 16.8843 18.987 16.8525C18.989 16.8516 18.9912 16.851 18.9931 16.8501C19.0714 16.8186 19.1525 16.7945 19.2352 16.7779L19.2441 16.7765C19.3297 16.7599 19.4167 16.7515 19.5039 16.7513C19.5943 16.7513 19.6825 16.7604 19.7681 16.7772C19.7703 16.7777 19.7724 16.7778 19.7745 16.7781C19.8603 16.7953 19.9442 16.8208 20.0251 16.854C20.1838 16.9194 20.3289 17.0137 20.4532 17.1321L20.4522 17.1297L19.5115 14.2227L18.5625 17.125" fill="#909393"/>
        <path d="M18.2271 18.6494C18.1941 18.5692 18.169 18.486 18.1519 18.401C18.1514 18.3991 18.1513 18.3972 18.1511 18.3955C18.1243 18.2605 18.118 18.1223 18.1324 17.9855C18.1335 17.9744 18.1359 17.9638 18.1373 17.9527C18.142 17.9166 18.147 17.8806 18.1543 17.8454C18.1565 17.8353 18.1598 17.8254 18.162 17.8152C18.1704 17.7796 18.1793 17.7441 18.1903 17.7095C18.1927 17.7023 18.1957 17.6954 18.1982 17.6881C18.2107 17.6511 18.2242 17.6143 18.2399 17.5788C18.2416 17.5746 18.2439 17.5708 18.2457 17.5666C18.2628 17.5283 18.2815 17.4905 18.302 17.4543L18.3045 17.4501C18.3719 17.3321 18.4562 17.2245 18.5547 17.1309L14.5623 18.1172H14.5547L18.509 19.0823C18.3894 18.9579 18.2943 18.8121 18.2283 18.6527C18.2278 18.6517 18.2275 18.6505 18.2271 18.6494" fill="#676A6A"/>
        <path d="M27.212 17.9009C27.2145 17.8831 27.2183 17.8664 27.2214 17.8491C27.2313 17.7923 27.2432 17.737 27.2585 17.6844C27.2602 17.6785 27.2609 17.6717 27.2628 17.6659L27.7837 15.2807L27.7835 13.9207C27.3579 13.5691 26.9022 13.377 26.4276 13.377C25.828 13.377 25.269 13.7081 24.8509 14.117C24.3934 14.5645 24.0399 15.1276 23.754 15.6958C23.7409 15.7219 23.7274 15.7471 23.7144 15.7734C23.8025 15.8497 23.8896 15.927 23.9757 16.0058C24.1701 16.1843 24.3612 16.3664 24.5488 16.552C24.6363 16.6384 24.7222 16.7266 24.8084 16.8145C24.8998 16.9076 24.9913 17.0005 25.0813 17.0951C25.246 17.268 25.4083 17.4432 25.5683 17.6204C25.7056 17.7718 25.8414 17.9246 25.9756 18.0787L25.9759 18.0789C25.9984 18.1025 26.0141 18.1194 26.0202 18.1262H27.195C27.195 18.1168 27.1969 18.1081 27.1971 18.0986C27.1982 18.0307 27.2029 17.9645 27.212 17.9009V17.9009ZM23.7143 15.7796L23.713 15.7761L23.7109 15.78L23.7161 15.785C23.7155 15.7832 23.7149 15.7814 23.7143 15.7796" fill="#E3DDDB"/>
        <path d="M9.53157 19.6177L9.54208 19.5914C9.69983 19.1821 9.88174 18.7825 10.0869 18.3948C10.1186 18.3344 10.1497 18.2739 10.1826 18.2141C10.2008 18.1811 10.2213 18.1496 10.2399 18.1167C10.3233 17.9693 10.4072 17.8222 10.4975 17.6791C10.5189 17.6449 10.5413 17.6118 10.5631 17.5781C10.6744 17.4052 10.7908 17.2357 10.9123 17.0698C10.9228 17.0554 10.9327 17.0404 10.9433 17.026C11.0714 16.8548 11.2048 16.6878 11.3435 16.5252C11.3729 16.4904 11.4022 16.4555 11.4321 16.421C11.5695 16.2634 11.7119 16.1102 11.8591 15.9618C11.8881 15.9327 11.9177 15.9044 11.947 15.8758C12.1027 15.7216 12.2639 15.5731 12.4304 15.4306L12.4314 15.4295C13.0885 13.2285 15.2103 11.8759 17.5893 11.8759C18.5467 11.8759 19.499 12.1518 20.315 12.651C21.152 13.163 21.7228 13.6632 22.1659 14.5377L22.1725 14.5508C22.1837 14.573 22.1962 14.5942 22.2072 14.6166L22.2084 14.6188L22.211 14.6205C22.5831 14.8507 22.9375 15.1083 23.2714 15.3912C23.3837 15.4859 23.4939 15.5832 23.6018 15.683C23.6375 15.7157 23.6742 15.7467 23.7094 15.78C23.7101 15.7786 23.7106 15.7772 23.7114 15.776C23.7118 15.775 23.7122 15.7741 23.7127 15.7732C23.7248 15.7484 23.7367 15.7232 23.7489 15.6987C24.0841 13.583 25.1492 12.4294 26.25 12.4294C27.0797 12.4294 27.6829 12.9241 28.1385 14.2559L28.1431 14.2702L28.1443 14.2718C28.2786 14.4183 28.404 14.5728 28.5198 14.7343L28.5196 14.7342C28.522 14.7374 28.5245 14.7403 28.5269 14.7437L28.5268 14.7435L28.5269 14.7437C28.5334 14.763 28.539 14.7829 28.5453 14.8022V14.802L28.5282 14.7327C27.1588 10.6786 23.3243 7.75977 18.8079 7.75977C13.143 7.75977 8.55078 12.352 8.55078 18.0169C8.55078 19.1337 8.72925 20.2088 9.0606 21.2093L9.06197 21.2035C9.17846 20.6638 9.33544 20.1337 9.53157 19.6177" fill="#525353"/>
        <path d="M28.682 18.1298L28.3243 18.5301V18.53L28.3235 18.5326C28.3099 18.5853 28.2932 18.6344 28.2748 18.6818C28.27 18.6943 28.2646 18.7061 28.2594 18.7182C28.2456 18.7508 28.2303 18.7827 28.2133 18.8138C28.2045 18.83 28.1958 18.8465 28.1863 18.8617C28.1715 18.8854 28.1555 18.907 28.1393 18.9283C28.1169 18.9577 28.0921 18.9851 28.0652 19.0104C28.0546 19.0204 28.0443 19.0312 28.0331 19.0402C28.0063 19.0615 27.9773 19.0798 27.9465 19.0949C27.8952 19.1199 27.8414 19.1345 27.7854 19.1345C27.4603 19.1345 27.1967 18.683 27.1967 18.1258H26.0156L26.0163 18.1268C26.2382 18.3832 26.4566 18.6427 26.6715 18.9051C26.878 19.1574 27.0819 19.4118 27.2832 19.6682L27.3129 19.7058C27.5037 19.9494 27.6928 20.1943 27.8801 20.4405L27.9347 20.5118C28.1337 20.7737 28.3314 21.0367 28.5279 21.3005C28.8735 20.2773 29.0551 19.2058 29.0658 18.1258L28.7338 18.1133L28.682 18.1298" fill="white"/>
        <path d="M17.248 13.392C17.2747 13.3899 17.3014 13.3883 17.3281 13.3865C17.5121 13.3735 17.6965 13.3667 17.881 13.3662C18.4372 13.3662 18.9806 13.4257 19.5092 13.5341H19.5093C19.8823 13.622 20.5446 13.804 21.0362 14.0116C21.2425 14.0988 21.4452 14.194 21.644 14.2971L21.6891 14.3217L21.7013 14.3286C21.7197 14.3389 21.7398 14.3499 21.7634 14.3633L21.765 14.3642L21.8544 14.4148L21.8624 14.4194C21.9888 14.491 22.1286 14.5714 22.1821 14.602L22.1958 14.6099L22.2055 14.6155C22.1946 14.5931 22.182 14.5718 22.1708 14.5497L22.1642 14.5365C21.7211 13.6621 21.039 12.9121 20.2019 12.4001C19.3859 11.9009 18.4336 11.625 17.476 11.625C15.0972 11.625 13.0868 13.2274 12.4297 15.4284C13.0518 14.8972 13.7439 14.4492 14.4887 14.1091C15.3573 13.7126 16.2954 13.4643 17.248 13.392" fill="black"/>
        <path d="M28.5261 14.7427L28.526 14.7426L28.5261 14.7427C28.5237 14.7394 28.5212 14.7364 28.5188 14.7332L28.519 14.7333C28.4032 14.5718 28.2778 14.4174 28.1434 14.2708L28.1401 14.2668C28.0829 14.2047 28.0238 14.1443 27.9629 14.0857C27.9404 14.0641 27.9171 14.0453 27.8944 14.0246C27.8568 13.9904 27.8194 13.9551 27.7812 13.9238V15.2845L28.3021 17.67V17.6699C28.3079 17.6884 28.3147 17.7058 28.3197 17.725L28.6806 18.1293L28.6841 18.1253H29.0617C29.0622 18.0904 29.0643 18.0558 29.0643 18.0208V18.0202C29.0642 16.9263 28.8886 15.8395 28.5445 14.8011V14.8012C28.5382 14.7819 28.5326 14.762 28.5261 14.7427" fill="#BBBCBD"/>
        <path d="M24.848 14.1167C25.2661 13.7078 25.8251 13.3767 26.4248 13.3767C26.8993 13.3767 27.355 13.5689 27.7807 13.9204L27.7808 13.9246V13.9252V13.9246C27.8189 13.9559 27.8563 13.9912 27.8939 14.0253C27.9166 14.046 27.9399 14.0649 27.9624 14.0865C28.0233 14.145 28.0824 14.2054 28.1397 14.2676L28.143 14.2716C28.1427 14.2711 28.1424 14.2706 28.1419 14.2702L28.1418 14.2701L28.1371 14.2557C27.6816 12.9239 26.9466 12.0586 26.1171 12.0586C25.0162 12.0586 24.0828 13.5828 23.7476 15.6985L23.7511 15.6956C24.037 15.1274 24.3905 14.5643 24.848 14.1167V14.1167ZM23.3605 27.1201C23.3605 27.1201 23.2123 27.0026 23.0241 26.7861C22.9365 26.686 22.8549 26.5808 22.7797 26.4711C22.7557 26.4361 22.7319 26.3998 22.7083 26.3623C22.6371 26.2498 22.5803 26.1128 22.5177 25.9774C22.4452 25.8206 22.445 25.7163 22.4034 25.5703C22.3728 25.4627 22.3485 25.3535 22.3306 25.2432C22.3018 25.0646 22.2902 24.8837 22.296 24.7029C22.2992 24.5986 22.31 24.4906 22.3256 24.3807C22.3412 24.2716 22.3624 24.1633 22.3893 24.0563C22.4722 23.7247 22.6156 23.3714 22.8393 22.9984L22.8962 22.8707C22.9693 22.7489 22.9856 22.7543 23.055 22.6369C24.0336 20.9855 24.5614 19.7368 24.3032 17.814C24.2749 17.6171 24.2427 17.4207 24.2068 17.2249C24.1843 17.3668 24.1605 17.5084 24.1354 17.6499C24.1256 17.6937 24.099 17.7414 24.089 17.7712C23.6639 19.0292 22.9948 19.9546 22.0321 20.9995C21.898 21.1444 21.7624 21.2878 21.6251 21.4296C21.3799 21.6831 21.1321 21.9341 20.8818 22.1826C20.7776 22.2862 20.6714 22.3914 20.5633 22.4985C20.464 22.5968 20.3405 22.8069 20.1931 22.9617C20.1021 23.2164 19.9987 23.5037 19.9113 23.8058C19.8719 23.7908 19.8343 23.7774 19.7942 23.7619C17.924 23.0385 16.6719 22.072 16.6719 22.072C16.6719 22.072 17.6353 23.3265 19.2585 24.504C19.4077 24.6122 19.5625 24.7124 19.7222 24.8043C19.6553 25.8641 20.1228 26.8816 22.2333 27.1851C22.5901 27.2364 22.9555 27.234 23.3235 27.1925C23.3199 27.1816 23.3441 27.1818 23.3422 27.1757C23.3401 27.1696 23.3618 27.1533 23.3618 27.1533" fill="black"/>
        <path d="M22.2343 24.3916C24.1079 24.6939 26.8808 24.6443 29.7594 23.2966C29.8287 23.2641 29.9052 23.3496 29.9745 23.3155C29.9745 23.3155 28.0071 25.325 25.6576 26.461C25.5889 26.4942 25.5211 26.5295 25.4518 26.561C25.2247 26.6648 24.9938 26.7551 24.762 26.8386C24.3074 27.0019 23.8467 27.1259 23.3893 27.1832C23.3683 27.1859 23.3473 27.1899 23.3263 27.1922C23.3234 27.1836 23.3205 27.1749 23.3177 27.1662L23.3146 27.1568C23.3146 27.1568 23.1663 27.0392 22.9781 26.8227C22.8905 26.7226 22.8089 26.6174 22.7338 26.5077C22.629 26.3554 22.5372 26.1944 22.4595 26.0266C22.3938 25.885 22.3393 25.7384 22.2965 25.5882C22.2158 25.3065 22.1796 25.0138 22.1889 24.7209C22.1929 24.613 22.2028 24.5055 22.2185 24.3987L22.2343 24.3916" fill="#9F2254"/>
        <path d="M20.8909 22.2596C21.1413 22.0111 21.3891 21.7601 21.6343 21.5066C21.7715 21.3647 21.9072 21.2213 22.0413 21.0764C23.0039 20.0315 23.7106 19.0537 24.1357 17.7957C24.1457 17.7659 24.1557 17.7266 24.1654 17.6824L24.17 17.662C24.1799 17.615 24.1896 17.5628 24.1994 17.5039C24.2032 17.4634 24.3304 17.3816 24.334 17.3435C24.2274 16.7958 23.9817 16.2199 23.7135 15.7802C23.7142 15.782 23.7148 15.7838 23.7154 15.7856L23.7102 15.7806C23.675 15.7473 23.6384 15.7163 23.6027 15.6836C23.4948 15.5838 23.3846 15.4866 23.2723 15.3918C22.9384 15.109 22.5839 14.8514 22.2118 14.6211C22.2306 14.9289 22.2426 15.2364 22.2458 15.5435C22.2462 15.578 22.2453 15.6124 22.2453 15.6468C22.2459 15.766 22.2462 15.8852 22.244 16.0044C22.241 16.1579 22.2356 16.3114 22.2277 16.4648C22.2219 16.5781 22.2147 16.6912 22.2059 16.8044C22.205 16.8162 22.2036 16.828 22.2028 16.8398C22.1692 17.2682 22.1136 17.6946 22.0363 18.1173L21.9011 18.757C21.6185 19.9025 21.0446 20.9416 20.5727 22.0145C20.4476 22.299 20.3289 22.5867 20.2248 22.8798L20.1953 22.9625C20.3192 22.8318 20.4449 22.7027 20.5724 22.5755C20.6806 22.4684 20.7868 22.3632 20.8909 22.2596" fill="#FCB03F"/>
        <path d="M14.6998 28.4201C15.3864 28.1163 16.0218 27.9256 16.777 27.7768C16.7733 27.6132 16.7648 27.4499 16.7515 27.2868C17.0741 26.4516 17.3716 25.6069 17.6436 24.7539C17.1624 24.8008 16.6843 24.8747 16.2115 24.9752C15.861 25.0496 15.5153 25.1431 15.1724 25.2464C14.8969 25.3293 14.6251 25.4246 14.3555 25.526L15.4216 25.7842L14.5638 28.4768L14.6998 28.4201" fill="#525353"/>
        <path d="M27.8811 20.4411C27.6938 20.1948 27.5048 19.9499 27.314 19.7064L27.2843 19.6688C27.0804 19.4092 26.874 19.1517 26.6649 18.8963C26.4525 18.6371 26.2366 18.3808 26.0174 18.1274C26.0035 18.1112 25.9897 18.0949 25.9757 18.0789C25.795 17.8714 25.6115 17.6663 25.4254 17.4636C25.3119 17.3398 25.1972 17.217 25.0814 17.0953C24.9911 17.001 24.9001 16.9075 24.8084 16.8147C24.7223 16.7268 24.6363 16.6386 24.5488 16.5522C24.3611 16.3666 24.1701 16.1845 23.9757 16.0059C23.8896 15.9273 23.8024 15.8498 23.7143 15.7734C23.7138 15.7743 23.7134 15.7752 23.713 15.7762C23.8983 16.3088 24.1098 16.8481 24.2157 17.4037C24.2433 17.5482 24.266 17.6887 24.2845 17.8261C24.5428 19.7487 23.9267 21.004 22.9483 22.6554C22.8766 22.776 22.8047 22.8966 22.7325 23.0169C22.5087 23.39 22.3655 23.7432 22.2824 24.0749C22.2556 24.1818 22.2344 24.2901 22.2188 24.3993C24.1375 24.7089 27.0227 24.7666 29.9748 23.3161C29.9748 23.3161 29.3959 22.4652 28.5248 21.2956C28.3297 21.0336 28.1334 20.7725 27.9358 20.5124C27.9177 20.4885 27.8993 20.4647 27.8811 20.4411" fill="#DF0067"/>
        <path d="M14.4612 28.9575L15.4209 25.7836L14.3548 25.5254C14.116 25.6151 13.8794 25.7107 13.6458 25.8147L12.6953 28.9575L13.7564 28.974L14.4612 28.9575" fill="#AA9678"/>
        <path d="M15.1359 27.5855C15.2296 27.6215 15.3249 27.6539 15.4199 27.6872C16.5088 28.0693 17.6546 28.2643 18.8086 28.2639C20.1214 28.2646 21.422 28.0125 22.6394 27.5214C22.7021 27.4963 22.7634 27.4686 22.8253 27.4422C22.9258 27.3996 23.0255 27.3553 23.1246 27.3096C23.213 27.2684 23.3015 27.2277 23.3885 27.1841C23.3675 27.1869 23.3465 27.1909 23.3255 27.1931C22.9574 27.2346 22.592 27.237 22.2352 27.1857C20.1247 26.8822 19.6572 25.8648 19.7242 24.8049C19.5644 24.713 19.4096 24.6128 19.2604 24.5047C17.6372 23.3271 16.6738 22.0727 16.6738 22.0727C16.6738 22.0727 17.926 23.0392 19.7961 23.7626C19.8362 23.7781 19.8738 23.7915 19.9132 23.8064C20.0007 23.5043 20.1041 23.2171 20.195 22.9624L20.2245 22.8797C20.3286 22.5866 20.4473 22.2989 20.5724 22.0144C21.0443 20.9415 21.6182 19.9025 21.9008 18.7569L22.036 18.1172H20.8818L20.8817 18.1173L20.8818 18.1196L20.8814 18.1198C20.8814 18.1229 20.8818 18.126 20.8818 18.1293C20.8821 18.4039 20.8001 18.6722 20.6464 18.8997C20.4967 19.121 20.2861 19.2944 20.0402 19.3988C19.8259 19.4895 19.5922 19.5242 19.3608 19.4997C19.3497 19.4986 19.3391 19.4962 19.3281 19.4948C19.292 19.4901 19.2562 19.4852 19.2213 19.478C19.2115 19.4758 19.2021 19.4727 19.1924 19.4705C19.1565 19.4622 19.1206 19.4533 19.0859 19.4422C19.0795 19.4401 19.0733 19.4374 19.0669 19.4353C19.0293 19.4226 18.992 19.409 18.9559 19.3932C18.9526 19.3918 18.9495 19.3901 18.9463 19.3886C18.9073 19.3715 18.8692 19.3525 18.832 19.3317L18.8303 19.3307C18.712 19.264 18.6042 19.1803 18.5102 19.0823L14.5559 18.1172H10.2404C10.2219 18.1501 10.2013 18.1816 10.1831 18.2147C10.1502 18.2744 10.1192 18.3351 10.0874 18.3953C9.98134 18.5956 9.88151 18.7992 9.78804 19.0057C9.70064 19.1987 9.6188 19.3942 9.54261 19.5919L9.5321 19.6182C9.33597 20.1342 9.17899 20.6643 9.0625 21.204C9.74188 23.2762 11.0637 25.0568 12.7917 26.3118C12.8419 26.3482 12.8949 26.3807 12.9459 26.4163C13.2383 26.6216 13.5412 26.8115 13.8535 26.9852C14.2664 27.2149 14.695 27.4155 15.1359 27.5855" fill="white"/>
        <path d="M25.4806 30.0382C25.4529 29.7639 25.4386 29.4885 25.4376 29.2128C25.4376 29.1326 25.4058 29.0556 25.349 28.9988C25.2923 28.9421 25.2153 28.9102 25.1351 28.9102H12.4397C12.3594 28.9102 12.2824 28.9421 12.2257 28.9988C12.1689 29.0556 12.137 29.1326 12.137 29.2128C12.137 29.4907 12.1206 29.7656 12.094 30.0382C12.0644 30.3378 12.0187 30.6356 11.957 30.9303C12.1411 31.0276 12.3267 31.1224 12.5154 31.2122C12.6416 30.6614 12.7155 30.0998 12.7362 29.5351C12.7365 29.5286 12.7372 29.522 12.7374 29.5155H24.8373C24.8375 29.522 24.8382 29.5286 24.8385 29.5351C24.8592 30.0998 24.9331 30.6613 25.0593 31.2122C25.2474 31.1222 25.4336 31.0282 25.6177 30.9303C25.556 30.6356 25.5103 30.3378 25.4806 30.0382" fill="#8B7460"/>
    </g>
    <defs>
        <clipPath id="clip0_2932_508583">
            <rect width="29.25" height="29.25" fill="white" transform="translate(4.16406 3.37305)"/>
        </clipPath>
    </defs>
</svg>
