<svg width="38" height="36" viewBox="0 0 38 36" fill="none" xmlns="http://www.w3.org/2000/svg">
    <path fill-rule="evenodd" clip-rule="evenodd" d="M19.5039 34.8634C29.445 34.8634 37.5039 27.059 37.5039 17.4317C37.5039 7.80445 29.445 0 19.5039 0C9.56278 0 1.50391 7.80445 1.50391 17.4317C1.50391 22.6678 3.88778 27.3647 7.6618 30.56V34.0876C7.6618 35.4662 9.06612 36.391 10.3182 35.8367L14.2327 34.1041C15.8998 34.5978 17.6698 34.8634 19.5039 34.8634Z" fill="url(#paint0_linear_2067_364568)"/>
    <path d="M15.1936 13.7261L9.97392 20.8647C9.41427 21.6301 10.4207 22.5496 11.187 21.9729L15.644 18.6187C16.0977 18.2773 16.7336 18.2727 17.1926 18.6075L21.1565 21.4992C21.9167 22.0538 23.0031 21.8943 23.5566 21.1469L29.0307 13.7549C29.5985 12.9882 28.5843 12.0613 27.8169 12.6455L23.1048 16.2327C22.651 16.5781 22.0117 16.5845 21.5506 16.2481L17.5996 13.3658C16.8362 12.809 15.7447 12.9724 15.1936 13.7261Z" fill="white"/>
    <defs>
        <linearGradient id="paint0_linear_2067_364568" x1="30.0039" y1="3.75" x2="8.17352" y2="35.1942" gradientUnits="userSpaceOnUse">
            <stop stop-color="#FF6171"/>
            <stop offset="0.3125" stop-color="#E73DD0"/>
            <stop offset="1" stop-color="#008AFF"/>
        </linearGradient>
    </defs>
</svg>
