<svg width="38" height="36" viewBox="0 0 38 36" fill="none" xmlns="http://www.w3.org/2000/svg">
    <path fill-rule="evenodd" clip-rule="evenodd" d="M15.6957 12.3394C15.676 12.3394 15.6379 12.3394 15.6181 12.3394C15.2907 12.3004 15.0211 12.0075 15.0211 11.6755C15.0014 11.363 14.8278 4.05956 19.0477 2.39975C20.1076 1.98962 21.0912 2.06769 21.9197 2.67317C22.9402 3.39569 23.6726 4.84072 24.1158 6.94975C24.4235 8.43387 24.4814 9.72265 24.4814 9.78129C24.5011 10.0937 24.2513 10.3281 23.9225 10.2695C23.5951 10.2304 23.3255 9.93755 23.3255 9.62504C23.2676 8.29717 22.8245 4.64549 21.3608 3.59091C20.8979 3.25898 20.3193 3.21988 19.6263 3.4933C16.0034 4.91878 16.177 11.7732 16.177 11.8512C16.177 12.1246 15.9851 12.3394 15.6957 12.3394Z" fill="#595961"/>
    <path fill-rule="evenodd" clip-rule="evenodd" d="M21.7066 2.71215C20.936 2.16531 20.0312 2.08725 19.0476 2.45828C17.3328 3.1417 16.1191 4.93834 15.522 7.67227C15.0789 9.68356 15.1367 11.4997 15.1367 11.5778C15.1367 11.6754 15.1748 11.7732 15.2524 11.8512C15.3287 11.9293 15.4063 11.9879 15.5023 11.9879C15.522 11.9879 15.5417 11.9879 15.5602 11.9879C15.7337 11.9879 15.8692 11.8512 15.8692 11.6754C15.8692 11.5974 15.6956 4.62583 19.4145 3.16125C20.1654 2.86841 20.8203 2.90738 21.3607 3.29796C22.9203 4.41105 23.3832 8.18002 23.4411 9.52743C23.4411 9.72266 23.6147 9.91801 23.8264 9.93743C24.0197 9.95698 24.1735 9.82027 24.1735 9.62505C24.1538 9.39072 23.9421 4.31344 21.7066 2.71215Z" fill="#B2B2C2"/>
    <path fill-rule="evenodd" clip-rule="evenodd" d="M15.522 11.7536C15.5023 11.7536 15.5023 11.7536 15.4839 11.7536C15.3682 11.734 15.2708 11.6169 15.2524 11.4997C15.2524 11.4215 15.1946 9.64456 15.6378 7.63314C16.2151 4.95786 17.4301 3.18076 19.1054 2.51676C20.0496 2.14573 20.8979 2.22393 21.6303 2.73167C23.7883 4.27431 24 9.27353 24 9.4883C24 9.60546 23.904 9.68353 23.7883 9.66411C23.6726 9.64456 23.5765 9.54695 23.5568 9.41024C23.5568 9.35159 23.3451 4.45011 21.3989 3.04405C20.8202 2.63405 20.1075 2.57541 19.2988 2.8878C15.522 4.43057 15.6956 11.4997 15.6956 11.5778C15.7141 11.6754 15.6378 11.7536 15.522 11.7536Z" fill="#B2B2C2"/>
    <path fill-rule="evenodd" clip-rule="evenodd" d="M17.0831 6.1687C17.2369 5.87586 17.3907 5.58289 17.5262 5.27051C17.4683 5.36812 17.083 6.3836 15.9074 6.22735C15.8877 6.22735 16.6005 6.44212 17.0831 6.1687Z" fill="#595961"/>
    <path fill-rule="evenodd" clip-rule="evenodd" d="M16.6582 7.4183C16.774 7.10578 16.8897 6.77385 16.9672 6.46146C16.9291 6.57862 16.7358 7.63307 15.5023 7.63307C15.5023 7.63307 16.2151 7.76978 16.6582 7.4183Z" fill="#595961"/>
    <path fill-rule="evenodd" clip-rule="evenodd" d="M23.4215 4.8994C23.2676 4.54779 23.094 4.21586 22.9204 3.86437C22.9783 3.98153 23.5569 5.09463 22.902 5.89521C22.902 5.89521 23.4031 5.50476 23.4215 4.8994Z" fill="#595961"/>
    <path fill-rule="evenodd" clip-rule="evenodd" d="M22.3629 3.14188C22.0539 2.888 21.7461 2.65368 21.4371 2.43891C21.5528 2.53652 22.5745 3.25904 22.5167 4.35271C22.4969 4.35271 22.6706 3.70826 22.3629 3.14188Z" fill="#595961"/>
    <path fill-rule="evenodd" clip-rule="evenodd" d="M17.6418 5.09438C17.8732 4.86006 18.0652 4.60619 18.2769 4.33277C18.2006 4.41083 17.5642 5.21154 16.428 4.91857C16.428 4.91857 17.0829 5.27018 17.6418 5.09438Z" fill="#595961"/>
    <path fill-rule="evenodd" clip-rule="evenodd" d="M18.3545 4.19623C18.6241 4.00101 18.8739 3.80565 19.1251 3.59088C19.0291 3.64952 18.2388 4.29384 17.1408 3.8252C17.1408 3.8252 17.7759 4.2743 18.3545 4.19623Z" fill="#595961"/>
    <path fill-rule="evenodd" clip-rule="evenodd" d="M19.3948 3.55155C19.7222 3.45394 20.0313 3.33678 20.339 3.21962C20.2233 3.25858 19.2409 3.61007 18.277 2.868C18.2967 2.868 18.7978 3.45394 19.3948 3.55155Z" fill="#595961"/>
    <path fill-rule="evenodd" clip-rule="evenodd" d="M20.339 3.20041C20.6086 3.23951 20.8781 3.25906 21.1477 3.27861C21.0517 3.25906 20.2035 3.20042 19.7222 2.41926C19.7222 2.41926 19.9156 2.94654 20.339 3.20041Z" fill="#595961"/>
    <path fill-rule="evenodd" clip-rule="evenodd" d="M21.4568 3.62961C21.6488 3.84451 21.8618 4.05929 22.0919 4.25451C22.0157 4.17645 21.3608 3.532 21.5147 2.73142C21.495 2.73142 21.2832 3.18051 21.4568 3.62961Z" fill="#595961"/>
    <path fill-rule="evenodd" clip-rule="evenodd" d="M23.7883 9.3907C23.7883 9.1758 23.5766 4.23522 21.4765 2.73168C21.0714 2.43871 20.6283 2.302 20.1654 2.302C19.8182 2.302 19.4526 2.38006 19.0673 2.53632C17.3907 3.18077 16.2151 4.91877 15.6378 7.57451C15.1946 9.56638 15.2524 11.3435 15.2524 11.4215C15.2524 11.4802 15.3103 11.5387 15.3682 11.5387H15.3866C15.4444 11.5387 15.4839 11.4997 15.4839 11.4411C15.4839 11.363 15.2906 4.23522 19.1633 2.71213C20.0115 2.38006 20.744 2.43871 21.3607 2.88781C23.3635 4.31342 23.5765 9.29309 23.5765 9.3516C23.5765 9.41025 23.6344 9.46876 23.6923 9.46876C23.6923 9.46876 23.6923 9.46876 23.7107 9.46876C23.7501 9.48831 23.7883 9.44921 23.7883 9.3907Z" fill="url(#paint0_linear_2067_364706)"/>
    <path fill-rule="evenodd" clip-rule="evenodd" d="M24.1158 6.94975C23.6726 4.84072 22.9402 3.41524 21.9197 2.67317C21.3608 2.28272 20.7625 2.10693 20.1076 2.14603C20.6283 2.185 21.1096 2.3608 21.5528 2.67319C22.5746 3.39583 23.3071 4.84086 23.7502 6.94989C24.0579 8.43402 24.1157 9.72279 24.1157 9.78144C24.1157 10.0158 24 10.1916 23.8067 10.2501C23.8462 10.2696 23.8844 10.2696 23.9041 10.2696C24.2315 10.3087 24.4814 10.0938 24.463 9.78144C24.4814 9.72279 24.4235 8.45342 24.1158 6.94975Z" fill="url(#paint1_linear_2067_364706)"/>
    <path fill-rule="evenodd" clip-rule="evenodd" d="M19.2607 3.49336C15.6378 4.91884 15.8113 11.7732 15.8113 11.8513C15.8113 12.0856 15.6956 12.2614 15.5023 12.3199C15.5417 12.3395 15.5602 12.3395 15.5996 12.3395C15.6181 12.3395 15.6575 12.3395 15.6759 12.3395C15.9652 12.3395 16.1572 12.1247 16.1572 11.8513C16.1572 11.7732 15.9849 4.93839 19.6065 3.51291C19.8577 3.4153 20.0891 3.35665 20.3008 3.3371C19.9918 3.27859 19.646 3.3371 19.2607 3.49336Z" fill="url(#paint2_linear_2067_364706)"/>
    <path fill-rule="evenodd" clip-rule="evenodd" d="M24.7509 5.19206L8.41182 10.3083C8.41182 10.3083 7.71881 10.5037 7.54523 10.7184C7.37164 10.9332 7.33349 11.5386 7.33349 11.5386L4.80859 31.2619L23.7686 34.8551L25.2336 5.17251C25.0218 5.13342 24.8088 5.17251 24.7509 5.19206Z" fill="url(#paint3_linear_2067_364706)"/>
    <path fill-rule="evenodd" clip-rule="evenodd" d="M30.3977 7.73071C30.3977 7.73071 30.3779 7.57445 30.2819 7.51593C30.2043 7.45729 30.1083 7.45729 30.1083 7.45729L27.4296 7.26206L25.465 5.28974C25.3874 5.2311 25.3098 5.19213 25.2138 5.17258L23.7502 34.8551L34.0192 32.6094L30.3977 7.73071Z" fill="url(#paint4_linear_2067_364706)"/>
    <path fill-rule="evenodd" clip-rule="evenodd" d="M18.0075 21.6736C17.7181 21.283 17.3723 20.9315 17.0251 20.619C16.678 20.3066 16.3124 20.0528 15.9455 19.8184C15.6957 19.6622 15.4642 19.5059 15.2709 19.3497C15.0789 19.1935 14.925 19.0373 14.8093 18.9006C14.6936 18.7443 14.5976 18.6076 14.5397 18.4515C14.4818 18.2952 14.4621 18.139 14.4621 17.9827C14.4621 17.7679 14.52 17.5532 14.5976 17.3773C14.6738 17.2017 14.8093 17.0454 14.9434 16.9087C15.0986 16.772 15.2709 16.6744 15.4839 16.5963C15.6956 16.5181 15.9454 16.4792 16.215 16.4596C16.5043 16.4401 16.7937 16.4596 17.0632 16.4792C17.3328 16.4986 17.584 16.5572 17.8338 16.6157C18.0653 16.6744 18.2967 16.7525 18.4887 16.8306C18.682 16.9087 18.874 16.9868 19.0094 17.065L20.2811 13.2375C20.0891 13.1399 19.8577 13.0421 19.6065 12.9836C19.3369 12.9054 19.0476 12.8469 18.7202 12.8078C18.3927 12.7688 18.0456 12.7493 17.68 12.7493C17.3144 12.7493 16.9291 12.7688 16.5241 12.8274C15.6575 12.9445 14.8856 13.1788 14.1926 13.5303C13.5377 13.8624 12.9591 14.2919 12.4778 14.8192C12.0149 15.327 11.6493 15.9128 11.3797 16.5768C11.1285 17.2212 10.9747 17.9437 10.9366 18.7248C10.9168 19.1935 10.955 19.6231 11.0707 20.0137C11.1667 20.4042 11.3218 20.7753 11.5336 21.1268C11.7255 21.4782 11.9767 21.7908 12.2463 22.0836C12.5159 22.3766 12.8433 22.65 13.1707 22.9039C13.4403 23.0991 13.6718 23.2943 13.8651 23.4701C14.0571 23.6459 14.2123 23.8216 14.3267 24.017C14.4424 24.1926 14.52 24.3684 14.5778 24.5637C14.6357 24.7395 14.6554 24.9347 14.6357 25.13C14.6357 25.3253 14.5779 25.5205 14.5003 25.6768C14.424 25.833 14.3267 25.9893 14.1728 26.1064C14.0387 26.2236 13.8651 26.3017 13.6718 26.3408C13.4798 26.3797 13.2484 26.3993 12.9972 26.3603C12.7092 26.3212 12.4199 26.2431 12.1503 26.1259C11.8807 26.0282 11.6099 25.8915 11.36 25.7548C11.1102 25.6182 10.8787 25.462 10.6854 25.3253C10.4737 25.1886 10.3001 25.0323 10.166 24.9151L9.298 27.8249C9.43345 28.0201 9.62549 28.1959 9.8372 28.3716C10.0502 28.5474 10.3001 28.7231 10.5894 28.8989C10.8787 29.0551 11.1864 29.2113 11.5139 29.348C11.8413 29.4847 12.2082 29.6018 12.5738 29.6996H12.6514C13.4404 29.8753 14.1926 29.9144 14.9053 29.8167C15.6378 29.719 16.3123 29.4651 16.8896 29.0747C17.4867 28.6646 17.9693 28.1177 18.3348 27.3952C18.7017 26.6727 18.9134 25.7939 18.9516 24.798C18.9713 24.1731 18.8938 23.6264 18.7202 23.1186C18.5466 22.5328 18.2968 22.0836 18.0075 21.6736Z" fill="url(#paint5_linear_2067_364706)"/>
    <path fill-rule="evenodd" clip-rule="evenodd" d="M9.42296 27.984C9.37825 27.9322 9.33614 27.8792 9.298 27.8249L10.166 24.9151C10.1778 24.926 10.1909 24.9374 10.2041 24.9489C10.3329 25.0613 10.4934 25.2012 10.6854 25.3253C10.8787 25.462 11.1102 25.6182 11.36 25.7548C11.6099 25.8915 11.8807 26.0282 12.1503 26.1259C12.4199 26.2431 12.7092 26.3212 12.9972 26.3603C13.2484 26.3993 13.4798 26.3797 13.6718 26.3408C13.8651 26.3017 14.0387 26.2236 14.1728 26.1064C14.3267 25.9893 14.424 25.833 14.5003 25.6768C14.5779 25.5205 14.6357 25.3253 14.6357 25.13C14.6554 24.9347 14.6357 24.7395 14.5778 24.5637C14.52 24.3684 14.4424 24.1926 14.3267 24.017C14.2175 23.8313 14.0729 23.6636 13.8927 23.4964C13.9874 23.6008 14.0676 23.708 14.1347 23.8217C14.2504 23.9975 14.3267 24.1732 14.3845 24.3686C14.4424 24.5442 14.4621 24.7396 14.4424 24.9348C14.4424 25.1302 14.3846 25.3254 14.3083 25.4817C14.2307 25.6379 14.1347 25.7941 13.9808 25.9112C13.8454 26.0284 13.6718 26.1066 13.4798 26.1455C13.2865 26.1846 13.0551 26.2042 12.8052 26.1651C12.5159 26.1261 12.2266 26.0479 11.957 25.9308C11.6874 25.8332 11.4178 25.6964 11.1667 25.5597C10.9168 25.423 10.6854 25.2669 10.4934 25.1302C10.3001 25.0061 10.1397 24.8661 10.0108 24.7537C9.99765 24.7422 9.98575 24.7309 9.9726 24.7201L9.106 27.6297C9.19148 27.754 9.30066 27.8704 9.42296 27.984ZM12.2621 22.1015C12.1898 22.0316 12.1201 21.9607 12.053 21.8885C11.7834 21.5955 11.5336 21.2832 11.3403 20.9317C11.1286 20.5801 10.9747 20.209 10.8787 19.8186C10.763 19.428 10.7235 18.9983 10.7432 18.5297C10.7813 17.7485 10.9366 17.026 11.1864 16.3816C11.456 15.7177 11.8229 15.1319 12.2845 14.6241C12.7671 14.0968 13.3443 13.6672 13.9992 13.3352C14.6935 12.9838 15.4642 12.7494 16.3308 12.6323C16.7358 12.5736 17.1211 12.5541 17.4867 12.5541C17.8536 12.5541 18.2007 12.5736 18.5282 12.6127C18.8556 12.6518 19.1449 12.7103 19.4145 12.7885C19.6644 12.847 19.8958 12.9447 20.0891 13.0423L20.0589 13.1336C19.9195 13.0745 19.767 13.0211 19.6065 12.9836C19.3369 12.9054 19.0476 12.8469 18.7202 12.8078C18.3927 12.7688 18.0456 12.7493 17.68 12.7493C17.3144 12.7493 16.9291 12.7688 16.5241 12.8274C15.6575 12.9445 14.8856 13.1788 14.1926 13.5303C13.5377 13.8624 12.9591 14.2919 12.4778 14.8192C12.0149 15.327 11.6493 15.9128 11.3797 16.5768C11.1285 17.2212 10.9747 17.9437 10.9366 18.7248C10.9168 19.1935 10.955 19.6231 11.0707 20.0137C11.1667 20.4042 11.3218 20.7753 11.5336 21.1268C11.7255 21.4782 11.9767 21.7908 12.2463 22.0836C12.2515 22.0895 12.2568 22.0956 12.2621 22.1015ZM14.879 18.9807C14.9842 19.0968 15.1157 19.2232 15.2709 19.3497C15.4642 19.5059 15.6957 19.6622 15.9455 19.8184C16.3124 20.0528 16.678 20.3066 17.0251 20.619C17.1264 20.71 17.2263 20.8043 17.3263 20.9019C17.1658 20.7335 16.9988 20.5742 16.8318 20.4239C16.4859 20.1114 16.1191 19.8575 15.7535 19.6232C15.5023 19.467 15.2709 19.3108 15.0789 19.1546C15.0066 19.0963 14.9408 19.0381 14.879 18.9807Z" fill="black"/>
    <path fill-rule="evenodd" clip-rule="evenodd" d="M28.0844 29.3288L27.4296 7.26206L27.3138 7.145L27.6229 29.0163C27.6229 29.0163 24.906 33.1953 24.501 33.0781C23.904 32.9024 25.6766 5.50462 25.6766 5.50462L25.4833 5.30939C25.4071 5.25075 25.3098 5.21178 25.2335 5.19223L23.7883 34.4646L23.7685 34.8748L28.0844 29.3288Z" fill="url(#paint6_linear_2067_364706)"/>
    <path fill-rule="evenodd" clip-rule="evenodd" d="M20.7045 6.4616C20.4744 7.37934 20.1851 8.23857 19.9734 8.76586C19.8379 9.07837 19.9918 9.37121 20.2811 9.41031C20.5901 9.4494 20.936 9.2345 21.0517 8.92212C21.0714 8.86347 21.5908 7.59424 21.9196 6.09057V6.07102L20.7045 6.4616Z" fill="url(#paint7_linear_2067_364706)"/>
    <path fill-rule="evenodd" clip-rule="evenodd" d="M12.015 9.1953C11.7454 9.7811 11.4758 10.2888 11.2825 10.6403C11.1102 10.9333 11.2062 11.2457 11.4955 11.3237C11.7835 11.4215 12.1688 11.2457 12.3424 10.9527C12.3621 10.9137 12.921 9.95691 13.422 8.74607L12.015 9.1953Z" fill="url(#paint8_linear_2067_364706)"/>
    <path fill-rule="evenodd" clip-rule="evenodd" d="M23.7686 34.8551L28.0844 29.3288L34.0586 32.6093L23.7686 34.8551Z" fill="url(#paint9_linear_2067_364706)"/>
    <path fill-rule="evenodd" clip-rule="evenodd" d="M23.7686 34.8551L28.0463 29.3285L34.0586 32.6093L23.7686 34.8551Z" fill="url(#paint10_linear_2067_364706)"/>
    <path fill-rule="evenodd" clip-rule="evenodd" d="M23.7686 34.8551L28.0463 29.3285L34.0586 32.6093L23.7686 34.8551Z" fill="url(#paint11_linear_2067_364706)"/>
    <path fill-rule="evenodd" clip-rule="evenodd" d="M19.5684 19.389C21.8039 22.4549 23.3069 25.7746 24.0578 28.9968L25.2335 5.15313C25.0218 5.11416 24.8087 5.15313 24.7509 5.17267L8.41182 10.3083C8.41182 10.3083 8.25782 10.3476 8.06452 10.4258C12.2081 11.8708 16.3505 14.9758 19.5684 19.389Z" fill="url(#paint12_linear_2067_364706)"/>
    <path fill-rule="evenodd" clip-rule="evenodd" d="M30.3001 7.53548C30.3975 7.61368 30.3977 7.73071 30.3977 7.73071L33.9809 32.5898L28.0843 29.3092L27.4295 7.24265L30.07 7.43787C30.0884 7.45742 30.2041 7.45742 30.3001 7.53548Z" fill="url(#paint13_linear_2067_364706)"/>
    <path fill-rule="evenodd" clip-rule="evenodd" d="M29.8769 7.59433C29.8769 7.59433 29.9926 7.59433 30.0886 7.69194C30.1846 7.77013 30.2043 7.8873 30.2043 7.8873L33.7312 32.473L34.0008 32.6293L30.416 7.75059C30.416 7.75059 30.3976 7.63343 30.32 7.55536C30.224 7.47717 30.0886 7.47717 30.0886 7.47717L27.4494 7.28194L29.8769 7.59433Z" fill="url(#paint14_linear_2067_364706)"/>
    <path fill-rule="evenodd" clip-rule="evenodd" d="M4.80859 31.2619L23.7686 34.8551L24.6944 14.5066L7.16639 14.993L4.80859 31.2619Z" fill="url(#paint15_linear_2067_364706)"/>
    <path fill-rule="evenodd" clip-rule="evenodd" d="M11.0325 10.5929C10.8602 11.0675 11.0298 11.5662 11.4138 11.707C11.7965 11.8477 12.2463 11.5771 12.4198 11.1025C12.5921 10.628 12.4212 10.1292 12.0385 9.98854C11.6558 9.84774 11.2048 10.1183 11.0325 10.5929Z" fill="white"/>
    <path fill-rule="evenodd" clip-rule="evenodd" d="M11.0116 10.3677C10.8393 10.8422 11.0103 11.341 11.3929 11.4817C11.7756 11.6225 12.2267 11.3519 12.399 10.8773C12.5712 10.4027 12.4016 9.90388 12.0176 9.76321C11.635 9.62242 11.1852 9.89302 11.0116 10.3677Z" fill="black"/>
    <path fill-rule="evenodd" clip-rule="evenodd" d="M27.4493 7.26206L25.4833 5.28974C25.4071 5.2311 25.3098 5.19206 25.2336 5.17251L23.7686 34.8551L28.1042 29.3091L27.4493 7.26206Z" fill="url(#paint16_linear_2067_364706)"/>
    <path fill-rule="evenodd" clip-rule="evenodd" d="M24.7509 5.19206L8.41182 10.3083C8.41182 10.3083 7.71881 10.5037 7.54523 10.7184C7.5255 10.738 7.52543 10.7579 7.50702 10.7775L23.9803 6.16885C24.1158 6.12975 24.4432 6.01259 24.4051 6.96943L23.403 34.8164L23.7502 34.875L25.2138 5.19246C25.0218 5.13382 24.8088 5.17251 24.7509 5.19206Z" fill="url(#paint17_linear_2067_364706)"/>
    <path fill-rule="evenodd" clip-rule="evenodd" d="M24.7509 5.19206L8.41182 10.3083C8.41182 10.3083 7.71881 10.5037 7.54523 10.7184C7.5255 10.738 7.52543 10.7579 7.50702 10.7775L11.3219 9.70336L24.4432 5.58304C24.5011 5.56349 24.7128 5.5244 24.9246 5.5635L23.4793 34.8164L23.7502 34.875L25.2138 5.19246C25.0218 5.13382 24.8088 5.17251 24.7509 5.19206Z" fill="url(#paint18_linear_2067_364706)"/>
    <path fill-rule="evenodd" clip-rule="evenodd" d="M28.9525 29.7974L28.0843 29.3092L23.7502 34.8551L23.9803 34.7964C23.9803 34.7964 27.7965 29.8169 28.1424 29.6607C28.3935 29.563 28.9525 29.7974 28.9525 29.7974Z" fill="url(#paint19_linear_2067_364706)"/>
    <path fill-rule="evenodd" clip-rule="evenodd" d="M23.7686 34.8551L28.1042 29.3091C28.0844 29.3286 25.3493 32.3554 23.7686 34.8551Z" fill="url(#paint20_linear_2067_364706)"/>
    <path fill-rule="evenodd" clip-rule="evenodd" d="M34.0586 32.6093L28.1041 29.3285C28.0844 29.3285 28.7788 29.4457 34.0586 32.6093Z" fill="url(#paint21_linear_2067_364706)"/>
    <path fill-rule="evenodd" clip-rule="evenodd" d="M19.8419 8.64572C19.6683 9.12037 19.8393 9.61917 20.222 9.75997C20.6059 9.90076 21.0557 9.63016 21.228 9.15563C21.4016 8.68099 21.2306 8.18219 20.8479 8.04139C20.4653 7.90072 20.0142 8.1712 19.8419 8.64572Z" fill="white"/>
    <path fill-rule="evenodd" clip-rule="evenodd" d="M19.8209 8.42139C19.6486 8.89604 19.8196 9.39484 20.2023 9.53563C20.585 9.67631 21.036 9.40583 21.2082 8.93118C21.3805 8.45666 21.2109 7.95786 20.8282 7.81706C20.4442 7.67626 19.9945 7.94687 19.8209 8.42139Z" fill="black"/>
    <path fill-rule="evenodd" clip-rule="evenodd" d="M11.7072 11.324C11.6875 11.324 11.6493 11.324 11.6296 11.324C11.3219 11.2851 11.1102 10.9921 11.1483 10.6602C11.1865 10.3476 12.2845 3.04417 16.7937 1.38437C17.9298 0.974241 18.8937 1.05231 19.6262 1.65779C20.5125 2.3803 20.9938 3.82533 21.0714 5.93436C21.1293 7.41849 20.9558 8.70726 20.9558 8.76591C20.9176 9.0783 20.6283 9.31274 20.3193 9.2541C20.0116 9.215 19.7801 8.92217 19.8379 8.60965C20.0115 7.28178 20.2035 3.63011 18.9135 2.57553C18.5084 2.24359 17.9496 2.2045 17.1987 2.47792C13.326 3.9034 12.3042 10.7578 12.3042 10.8163C12.2266 11.1093 11.9965 11.324 11.7072 11.324Z" fill="#595961"/>
    <path fill-rule="evenodd" clip-rule="evenodd" d="M19.3948 1.69665C18.7202 1.14994 17.8339 1.07187 16.774 1.4429C14.9435 2.12632 13.4022 3.92284 12.3423 6.63722C11.5533 8.64864 11.2824 10.4647 11.2824 10.5429C11.264 10.6405 11.3022 10.7381 11.36 10.8163C11.4179 10.8944 11.4954 10.953 11.5914 10.953C11.6098 10.953 11.6296 10.953 11.6493 10.953C11.8229 10.953 11.9767 10.8163 11.9964 10.6405C12.0148 10.5624 13.0367 3.5909 17.0251 2.12632C17.8339 1.83336 18.4887 1.87246 18.9516 2.26304C20.3192 3.37613 20.1272 7.14496 19.9537 8.49238C19.9339 8.68774 20.0694 8.88296 20.2614 8.90251C20.4547 8.92206 20.6467 8.78535 20.6664 8.59012C20.6861 8.37522 21.3608 3.29806 19.3948 1.69665Z" fill="#B2B2C2"/>
    <path fill-rule="evenodd" clip-rule="evenodd" d="M11.6296 10.7382C11.6099 10.7382 11.6099 10.7382 11.5915 10.7382C11.4758 10.7187 11.3982 10.6015 11.4179 10.4843C11.4376 10.4061 11.6875 8.62918 12.4779 6.61776C13.5378 3.94247 15.0408 2.16538 16.8319 1.50138C17.8536 1.13035 18.6821 1.20854 19.3173 1.71628C21.2056 3.25893 20.5508 8.25814 20.5126 8.47292C20.4929 8.59008 20.3969 8.66814 20.2615 8.64872C20.1471 8.62918 20.0695 8.53156 20.0695 8.39485C20.0695 8.33621 20.7244 3.43473 19.0293 2.02867C18.5283 1.65764 17.834 1.61867 16.9871 1.93106C12.921 3.43473 11.8611 10.4843 11.8611 10.5624C11.8414 10.66 11.7454 10.7382 11.6296 10.7382Z" fill="#B2B2C2"/>
    <path fill-rule="evenodd" clip-rule="evenodd" d="M14.1728 5.153C14.3846 4.86016 14.5778 4.56719 14.7698 4.25481C14.6936 4.35242 14.1347 5.3679 12.9788 5.21165C12.9591 5.21165 13.6337 5.42642 14.1728 5.153Z" fill="#595961"/>
    <path fill-rule="evenodd" clip-rule="evenodd" d="M13.5181 6.4026C13.6916 6.09008 13.8652 5.75815 13.9993 5.44576C13.9414 5.56292 13.5561 6.61737 12.3424 6.61737C12.3424 6.61737 13.017 6.75408 13.5181 6.4026Z" fill="#595961"/>
    <path fill-rule="evenodd" clip-rule="evenodd" d="M13.017 7.69191C13.1708 7.35984 13.2866 7.02791 13.4023 6.69597C13.3445 6.81313 13.1327 7.88713 11.8611 8.02384C11.8611 8.00429 12.5541 8.08249 13.017 7.69191Z" fill="#595961"/>
    <path fill-rule="evenodd" clip-rule="evenodd" d="M20.7242 3.8837C20.6282 3.53209 20.5322 3.20016 20.3967 2.84867C20.4348 2.96583 20.8202 4.07893 20.0312 4.87951C20.0312 4.87951 20.6085 4.48905 20.7242 3.8837Z" fill="#595961"/>
    <path fill-rule="evenodd" clip-rule="evenodd" d="M19.9735 2.12617C19.7039 1.8723 19.433 1.63798 19.1634 1.42321C19.2607 1.52082 20.1655 2.24333 19.9156 3.33688C19.8959 3.33688 20.1852 2.69243 19.9735 2.12617Z" fill="#595961"/>
    <path fill-rule="evenodd" clip-rule="evenodd" d="M20.9175 5.68039C20.8978 5.3289 20.84 4.95787 20.7821 4.60626C20.7821 4.74297 20.9754 5.89516 20.0497 6.52006C20.0497 6.52006 20.6861 6.24664 20.9175 5.68039Z" fill="#595961"/>
    <path fill-rule="evenodd" clip-rule="evenodd" d="M21.0136 7.51613C21.0333 7.16464 21.0333 6.79361 21.0136 6.44213C21.0136 6.57884 21.0333 7.73103 20.0497 8.25819C20.0497 8.23877 20.7243 8.04341 21.0136 7.51613Z" fill="#595961"/>
    <path fill-rule="evenodd" clip-rule="evenodd" d="M12.5737 9.11717C12.6894 8.76569 12.767 8.41421 12.8433 8.08214C12.8051 8.1993 12.6316 9.3124 11.4559 9.58582C11.4757 9.58582 12.1686 9.56627 12.5737 9.11717Z" fill="#595961"/>
    <path fill-rule="evenodd" clip-rule="evenodd" d="M14.9054 4.07868C15.175 3.84436 15.4261 3.59049 15.6575 3.31707C15.5602 3.39513 14.7896 4.19584 13.7113 3.90287C13.7297 3.90287 14.3268 4.25448 14.9054 4.07868Z" fill="#595961"/>
    <path fill-rule="evenodd" clip-rule="evenodd" d="M15.7718 3.18085C16.0808 2.98562 16.3702 2.79027 16.6582 2.5755C16.5437 2.63414 15.6574 3.27846 14.6356 2.80982C14.6356 2.80982 15.1748 3.25892 15.7718 3.18085Z" fill="#595961"/>
    <path fill-rule="evenodd" clip-rule="evenodd" d="M16.9475 2.53648C17.2947 2.43874 17.6221 2.32158 17.9496 2.20442C17.8339 2.24352 16.7937 2.595 15.9455 1.85294C15.9455 1.85294 16.3505 2.43874 16.9475 2.53648Z" fill="#595961"/>
    <path fill-rule="evenodd" clip-rule="evenodd" d="M17.9298 2.18503C18.2007 2.22413 18.4704 2.24368 18.7399 2.26323C18.6439 2.24368 17.8154 2.18503 17.4485 1.40387C17.4682 1.40387 17.5643 1.93116 17.9298 2.18503Z" fill="#595961"/>
    <path fill-rule="evenodd" clip-rule="evenodd" d="M18.9713 2.61435C19.1449 2.82913 19.3172 3.0439 19.4908 3.23926C19.4329 3.16106 18.8937 2.51674 19.1633 1.71603C19.183 1.71603 18.8937 2.16525 18.9713 2.61435Z" fill="#595961"/>
    <path fill-rule="evenodd" clip-rule="evenodd" d="M20.3007 8.37519C20.3191 8.16041 20.9754 3.21984 19.1449 1.71617C18.7977 1.42333 18.3743 1.28662 17.9114 1.28662C17.5642 1.28662 17.1789 1.36468 16.7739 1.52094C15.0012 2.16539 13.5179 3.90339 12.4777 6.55913C11.6874 8.551 11.4375 10.3281 11.4177 10.4062C11.4177 10.4647 11.4559 10.5233 11.5138 10.5233H11.5335C11.5913 10.5233 11.6295 10.4842 11.6295 10.4257C11.6492 10.3475 12.6894 3.21984 16.8317 1.69662C17.718 1.36468 18.4702 1.42333 19.0094 1.87242C20.7623 3.29791 20.1075 8.27758 20.0891 8.33622C20.0891 8.39474 20.1272 8.45338 20.1851 8.45338C20.1851 8.45338 20.185 8.45338 20.2034 8.45338C20.2613 8.47293 20.3007 8.43383 20.3007 8.37519Z" fill="url(#paint22_linear_2067_364706)"/>
    <path fill-rule="evenodd" clip-rule="evenodd" d="M21.0714 5.93436C20.9938 3.82533 20.5125 2.39985 19.6262 1.65779C19.1449 1.26734 18.5663 1.09123 17.9115 1.13033C18.4125 1.1693 18.8741 1.3451 19.2607 1.65749C20.147 2.38013 20.6282 3.82516 20.7045 5.93419C20.7624 7.41832 20.5901 8.70709 20.5901 8.76574C20.5507 9.00006 20.3968 9.17586 20.2035 9.23438C20.243 9.25393 20.2613 9.25393 20.3008 9.25393C20.6085 9.29303 20.8979 9.07812 20.936 8.76574C20.9557 8.70709 21.1293 7.43804 21.0714 5.93436Z" fill="url(#paint23_linear_2067_364706)"/>
    <path fill-rule="evenodd" clip-rule="evenodd" d="M16.8135 2.47775C12.9407 3.90324 11.919 10.7576 11.919 10.8357C11.8808 11.07 11.7256 11.2458 11.5336 11.3043C11.5718 11.3239 11.5914 11.324 11.6296 11.324C11.6493 11.324 11.6875 11.324 11.7072 11.324C11.9965 11.324 12.2267 11.1091 12.2661 10.8357C12.2845 10.7576 13.2866 3.92279 17.1593 2.49718C17.4302 2.39956 17.6604 2.34105 17.8734 2.3215C17.5841 2.2824 17.2172 2.34105 16.8135 2.47775Z" fill="url(#paint24_linear_2067_364706)"/>
    <defs>
        <linearGradient id="paint0_linear_2067_364706" x1="8.25886" y1="1.28606" x2="6.01498" y2="30.6234" gradientUnits="userSpaceOnUse">
            <stop stop-color="white" stop-opacity="0.65"/>
            <stop offset="1" stop-color="white" stop-opacity="0.01"/>
        </linearGradient>
        <linearGradient id="paint1_linear_2067_364706" x1="8.60347" y1="21.0563" x2="24.8527" y2="44.6329" gradientUnits="userSpaceOnUse">
            <stop stop-opacity="0.01"/>
            <stop offset="1" stop-opacity="0.4"/>
        </linearGradient>
        <linearGradient id="paint2_linear_2067_364706" x1="25.9305" y1="30.4371" x2="40.9291" y2="7.11404" gradientUnits="userSpaceOnUse">
            <stop stop-opacity="0.01"/>
            <stop offset="1" stop-opacity="0.4"/>
        </linearGradient>
        <linearGradient id="paint3_linear_2067_364706" x1="16.8762" y1="-5.6411" x2="-1.27652" y2="21.3561" gradientUnits="userSpaceOnUse">
            <stop stop-color="#B8D26E"/>
            <stop offset="1" stop-color="#7FB525"/>
        </linearGradient>
        <linearGradient id="paint4_linear_2067_364706" x1="43.0108" y1="-0.0627581" x2="15.7199" y2="1.23756" gradientUnits="userSpaceOnUse">
            <stop stop-color="#B4E034"/>
            <stop offset="1" stop-color="#60A927"/>
        </linearGradient>
        <linearGradient id="paint5_linear_2067_364706" x1="2.97347" y1="9.9944" x2="-8.78507" y2="49.6145" gradientUnits="userSpaceOnUse">
            <stop stop-color="white"/>
            <stop offset="1" stop-color="#CECEEB"/>
        </linearGradient>
        <linearGradient id="paint6_linear_2067_364706" x1="-21.4558" y1="67.2302" x2="63.0108" y2="66.1861" gradientUnits="userSpaceOnUse">
            <stop stop-color="#1D1D1B" stop-opacity="0.5"/>
            <stop offset="0.038033" stop-color="#1D1D1B" stop-opacity="0.4837"/>
            <stop offset="0.4243" stop-color="#1D1D1B" stop-opacity="0.3185"/>
            <stop offset="1" stop-color="#1D1D1B" stop-opacity="0.01"/>
        </linearGradient>
        <linearGradient id="paint7_linear_2067_364706" x1="25.5794" y1="-12.1032" x2="1.75716" y2="6.96389" gradientUnits="userSpaceOnUse">
            <stop stop-opacity="0.01"/>
            <stop offset="1" stop-opacity="0.4"/>
        </linearGradient>
        <linearGradient id="paint8_linear_2067_364706" x1="24.1883" y1="-8.75951" x2="5.70635" y2="7.74546" gradientUnits="userSpaceOnUse">
            <stop stop-opacity="0.01"/>
            <stop offset="1" stop-opacity="0.4"/>
        </linearGradient>
        <linearGradient id="paint9_linear_2067_364706" x1="13.5705" y1="21.2494" x2="15.3759" y2="32.5959" gradientUnits="userSpaceOnUse">
            <stop stop-opacity="0.01"/>
            <stop offset="1" stop-opacity="0.4"/>
        </linearGradient>
        <linearGradient id="paint10_linear_2067_364706" x1="3.80307" y1="4.31547" x2="8.0053" y2="33.9308" gradientUnits="userSpaceOnUse">
            <stop stop-color="white" stop-opacity="0.5"/>
            <stop offset="0.0896271" stop-color="white" stop-opacity="0.4552"/>
            <stop offset="1" stop-color="white" stop-opacity="0.01"/>
        </linearGradient>
        <linearGradient id="paint11_linear_2067_364706" x1="1.93779" y1="8.99311" x2="9.21821" y2="39.8061" gradientUnits="userSpaceOnUse">
            <stop stop-opacity="0.01"/>
            <stop offset="1" stop-opacity="0.4"/>
        </linearGradient>
        <linearGradient id="paint12_linear_2067_364706" x1="25.785" y1="-5.64369" x2="2.3333" y2="11.0889" gradientUnits="userSpaceOnUse">
            <stop stop-color="white" stop-opacity="0.5"/>
            <stop offset="1" stop-color="white" stop-opacity="0.01"/>
        </linearGradient>
        <linearGradient id="paint13_linear_2067_364706" x1="-13.2686" y1="53.1159" x2="48.0703" y2="53.5414" gradientUnits="userSpaceOnUse">
            <stop stop-color="#1D1D1B" stop-opacity="0.5"/>
            <stop offset="0.0896271" stop-color="#1D1D1B" stop-opacity="0.4552"/>
            <stop offset="1" stop-color="#1D1D1B" stop-opacity="0.01"/>
        </linearGradient>
        <linearGradient id="paint14_linear_2067_364706" x1="30.5711" y1="0.139663" x2="25.1636" y2="4.69027" gradientUnits="userSpaceOnUse">
            <stop stop-color="white" stop-opacity="0.4"/>
            <stop offset="1" stop-color="white" stop-opacity="0.01"/>
        </linearGradient>
        <linearGradient id="paint15_linear_2067_364706" x1="20.8417" y1="35.2355" x2="22.6354" y2="27.3809" gradientUnits="userSpaceOnUse">
            <stop stop-color="#1D1D1B" stop-opacity="0.5"/>
            <stop offset="0.0896271" stop-color="#1D1D1B" stop-opacity="0.4552"/>
            <stop offset="1" stop-color="#1D1D1B" stop-opacity="0.01"/>
        </linearGradient>
        <linearGradient id="paint16_linear_2067_364706" x1="-9.98053" y1="66.5611" x2="74.4137" y2="67.0053" gradientUnits="userSpaceOnUse">
            <stop stop-color="#1D1D1B" stop-opacity="0.5"/>
            <stop offset="1" stop-color="#1D1D1B" stop-opacity="0.01"/>
        </linearGradient>
        <linearGradient id="paint17_linear_2067_364706" x1="9.16622" y1="-0.794472" x2="4.4863" y2="25.9889" gradientUnits="userSpaceOnUse">
            <stop stop-color="white" stop-opacity="0.5"/>
            <stop offset="1" stop-color="white" stop-opacity="0.01"/>
        </linearGradient>
        <linearGradient id="paint18_linear_2067_364706" x1="9.16622" y1="-0.794472" x2="4.4863" y2="25.9889" gradientUnits="userSpaceOnUse">
            <stop stop-color="white" stop-opacity="0.5"/>
            <stop offset="1" stop-color="white" stop-opacity="0.01"/>
        </linearGradient>
        <linearGradient id="paint19_linear_2067_364706" x1="11.1007" y1="-10.9313" x2="-17.8414" y2="26.7661" gradientUnits="userSpaceOnUse">
            <stop stop-color="white" stop-opacity="0.5"/>
            <stop offset="0.0896271" stop-color="white" stop-opacity="0.4552"/>
            <stop offset="1" stop-color="white" stop-opacity="0.01"/>
        </linearGradient>
        <linearGradient id="paint20_linear_2067_364706" x1="21.9931" y1="-1.91512" x2="19.4125" y2="4.65326" gradientUnits="userSpaceOnUse">
            <stop stop-opacity="0.01"/>
            <stop offset="1" stop-opacity="0.4"/>
        </linearGradient>
        <linearGradient id="paint21_linear_2067_364706" x1="19.1568" y1="9.92066" x2="18.6854" y2="12.7343" gradientUnits="userSpaceOnUse">
            <stop stop-opacity="0.01"/>
            <stop offset="1" stop-opacity="0.4"/>
        </linearGradient>
        <linearGradient id="paint22_linear_2067_364706" x1="12.3972" y1="-1.27691" x2="4.3687" y2="27.5783" gradientUnits="userSpaceOnUse">
            <stop stop-color="white" stop-opacity="0.65"/>
            <stop offset="1" stop-color="white" stop-opacity="0.01"/>
        </linearGradient>
        <linearGradient id="paint23_linear_2067_364706" x1="9.2714" y1="18.2078" x2="19.9124" y2="42.8345" gradientUnits="userSpaceOnUse">
            <stop stop-opacity="0.01"/>
            <stop offset="1" stop-opacity="0.4"/>
        </linearGradient>
        <linearGradient id="paint24_linear_2067_364706" x1="25.8315" y1="31.8403" x2="43.4553" y2="8.99562" gradientUnits="userSpaceOnUse">
            <stop stop-opacity="0.01"/>
            <stop offset="1" stop-opacity="0.4"/>
        </linearGradient>
    </defs>
</svg>
