<svg width="37" height="36" viewBox="0 0 37 36" fill="none" xmlns="http://www.w3.org/2000/svg">
    <g clip-path="url(#clip0_2067_364495)">
        <path d="M36.7188 18C36.7188 8.05887 28.6599 0 18.7188 0C8.77762 0 0.71875 8.05887 0.71875 18C0.71875 26.9842 7.30105 34.431 15.9062 35.7813V23.2031H11.3359V18H15.9062V14.0344C15.9062 9.52313 18.5936 7.03125 22.7051 7.03125C24.6739 7.03125 26.7344 7.38281 26.7344 7.38281V11.8125H24.4647C22.2288 11.8125 21.5312 13.2001 21.5312 14.625V18H26.5234L25.7254 23.2031H21.5312V35.7813C30.1364 34.431 36.7188 26.9842 36.7188 18Z" fill="#1877F2"/>
        <path d="M25.7254 23.2031L26.5234 18H21.5312V14.625C21.5312 13.2015 22.2288 11.8125 24.4647 11.8125H26.7344V7.38281C26.7344 7.38281 24.6746 7.03125 22.7051 7.03125C18.5936 7.03125 15.9062 9.52313 15.9062 14.0344V18H11.3359V23.2031H15.9062V35.7813C17.7699 36.0729 19.6676 36.0729 21.5312 35.7813V23.2031H25.7254Z" fill="white"/>
    </g>
    <defs>
        <clipPath id="clip0_2067_364495">
            <rect width="36" height="36" fill="white" transform="translate(0.71875)"/>
        </clipPath>
    </defs>
</svg>
