<svg width="38" height="36" viewBox="0 0 38 36" fill="none" xmlns="http://www.w3.org/2000/svg">
    <g clip-path="url(#clip0_2067_364527)">
        <rect x="0.859375" width="36" height="36" rx="7" fill="url(#paint0_linear_2067_364527)"/>
        <path d="M33.1226 7.20601C32.7936 6.35479 32.4001 5.74678 31.7564 5.103C31.1197 4.46638 30.5046 4.06581 29.6534 3.73677C29.0096 3.48641 28.0439 3.18598 26.2557 3.1073C24.3315 3.02146 23.7521 3 18.8594 3C13.9667 3 13.3873 3.02146 11.4631 3.1073C9.68198 3.18598 8.70916 3.48641 8.06538 3.73677L33.1226 7.20601ZM33.1226 7.20601C33.373 7.84979 33.6734 8.8226 33.7521 10.6037L33.1226 7.20601ZM26.2334 3.6068L26.2337 3.60681C27.9657 3.68302 28.8776 3.97158 29.4721 4.20277L29.4731 4.20314C30.2598 4.50724 30.8158 4.86956 31.4028 5.45656C31.9967 6.05039 32.352 6.59916 32.6562 7.38629L32.6566 7.38723C32.8877 7.98149 33.1764 8.90062 33.2526 10.6258L33.2526 10.6259C33.3379 12.5464 33.3594 13.1173 33.3594 18C33.3594 22.8899 33.3379 23.4608 33.2526 25.374L33.2526 25.3743C33.1764 27.1063 32.8878 28.0183 32.6566 28.6128L32.6562 28.6137C32.3521 29.4004 31.9898 29.9564 31.4028 30.5434C30.809 31.1373 30.2602 31.4926 29.4731 31.7969L29.4721 31.7972C28.8779 32.0283 27.9588 32.317 26.2336 32.3932L26.2335 32.3932C24.313 32.4785 23.7421 32.5 18.8594 32.5C13.9694 32.5 13.3986 32.4785 11.4854 32.3932L11.4851 32.3932C9.75306 32.317 8.8411 32.0284 8.24661 31.7972L8.24566 31.7969C7.45895 31.4928 6.90293 31.1304 6.31593 30.5434C5.7221 29.9496 5.36678 29.4008 5.06251 28.6137L5.06214 28.6128C4.83105 28.0185 4.5424 27.0994 4.46618 25.3742L4.46618 25.3741C4.38082 23.4536 4.35938 22.8827 4.35938 18C4.35938 13.1101 4.38083 12.5392 4.46617 10.626L4.46619 10.6257C4.5424 8.89369 4.83095 7.98173 5.06214 7.38723L5.06251 7.38629C5.36662 6.59958 5.72894 6.04355 6.31593 5.45656C6.90977 4.86272 7.45854 4.5074 8.24566 4.20314L8.24661 4.20277C8.84086 3.97167 9.75999 3.68302 11.4852 3.60681L11.4854 3.6068C13.3986 3.52145 13.9694 3.5 18.8594 3.5C23.7493 3.5 24.3201 3.52145 26.2334 3.6068Z" stroke="white"/>
        <path d="M18.8594 8.75391C13.7547 8.75391 9.61328 12.8953 9.61328 18C9.61328 23.1047 13.7547 27.2461 18.8594 27.2461C23.9641 27.2461 28.1055 23.1047 28.1055 18C28.1055 12.8953 23.9641 8.75391 18.8594 8.75391ZM18.8594 23.9977C15.5477 23.9977 12.8617 21.3117 12.8617 18C12.8617 14.6883 15.5477 12.0023 18.8594 12.0023C22.1711 12.0023 24.857 14.6883 24.857 18C24.857 21.3117 22.1711 23.9977 18.8594 23.9977Z" fill="white"/>
        <path d="M30.6297 8.38907C30.6297 9.58438 29.6594 10.5477 28.4711 10.5477C27.2758 10.5477 26.3125 9.57735 26.3125 8.38907C26.3125 7.19375 27.2828 6.23047 28.4711 6.23047C29.6594 6.23047 30.6297 7.20078 30.6297 8.38907Z" fill="white"/>
    </g>
    <defs>
        <linearGradient id="paint0_linear_2067_364527" x1="6.10937" y1="30.75" x2="31.6094" y2="5.25" gradientUnits="userSpaceOnUse">
            <stop stop-color="#FFCA00"/>
            <stop offset="0.359375" stop-color="#FF0417"/>
            <stop offset="0.989583" stop-color="#8F37B4"/>
        </linearGradient>
        <clipPath id="clip0_2067_364527">
            <rect width="36" height="36" fill="white" transform="translate(0.859375)"/>
        </clipPath>
    </defs>
</svg>
