<svg width="38" height="36" viewBox="0 0 38 36" fill="none" xmlns="http://www.w3.org/2000/svg">
    <path d="M4.80907 7.16409C3.82812 9.08929 3.82812 11.6095 3.82812 16.65V19.35C3.82812 24.3905 3.82812 26.9107 4.80907 28.8359C5.67193 30.5294 7.04875 31.9062 8.74221 32.7691C10.6674 33.75 13.1877 33.75 18.2281 33.75H20.9281C25.9686 33.75 28.4888 33.75 30.414 32.7691C32.1075 31.9062 33.4843 30.5294 34.3472 28.8359C35.3281 26.9107 35.3281 24.3905 35.3281 19.35V16.65C35.3281 11.6095 35.3281 9.08929 34.3472 7.16409C33.4843 5.47063 32.1075 4.0938 30.414 3.23094C28.4888 2.25 25.9686 2.25 20.9281 2.25H18.2281C13.1877 2.25 10.6674 2.25 8.74221 3.23094C7.04875 4.0938 5.67193 5.47063 4.80907 7.16409Z" fill="url(#paint0_linear_2067_364695)"/>
    <path d="M4.1265 9.31447C3.82812 11.0102 3.82812 13.2602 3.82812 16.65V19.35C3.82812 24.3905 3.82812 26.9107 4.80907 28.8359C5.67193 30.5294 7.04875 31.9062 8.74221 32.7691C10.6674 33.75 13.1877 33.75 18.2281 33.75H20.9281C25.9686 33.75 28.4888 33.75 30.414 32.7691C32.1075 31.9062 33.4843 30.5294 34.3472 28.8359C35.3281 26.9107 35.3281 24.3905 35.3281 19.35V16.65C35.3281 11.6095 35.3281 9.08929 34.3472 7.16409C33.5143 5.52955 32.2027 4.18994 30.5896 3.32281L4.1265 9.31447Z" fill="url(#paint1_linear_2067_364695)"/>
    <path d="M35.0022 26.8358C34.8576 27.596 34.6487 28.2441 34.3472 28.8359C33.4843 30.5294 32.1075 31.9062 30.414 32.7691C28.5464 33.7206 26.1189 33.7491 21.3739 33.7499H19.644V30.1913L35.0022 26.8358Z" fill="url(#paint2_linear_2067_364695)"/>
    <path d="M20.9281 2.25H18.2281C17.2475 2.25 16.3623 2.25 15.5583 2.25722V6.71683L30.5867 3.32128C30.5295 3.29057 30.472 3.26046 30.414 3.23094C29.3453 2.68637 28.0931 2.44412 26.3281 2.33635C24.9139 2.25 23.1704 2.25 20.9281 2.25Z" fill="url(#paint3_linear_2067_364695)"/>
    <path d="M35.3281 19.545C35.328 22.9263 35.322 25.1551 35.0022 26.8358L29.6608 28.0028V20.0428L35.3281 18.7248V19.545Z" fill="url(#paint4_linear_2067_364695)"/>
    <path fill-rule="evenodd" clip-rule="evenodd" d="M18.3867 15.0501C18.3867 14.3271 18.9778 14.049 19.9568 14.049C21.3607 14.049 23.1341 14.4754 24.538 15.2355V10.8789C23.0048 10.2671 21.4901 10.0261 19.9568 10.0261C16.2069 10.0261 13.7131 11.9912 13.7131 15.2726C13.7131 20.3893 20.7327 19.5736 20.7327 21.7797C20.7327 22.6325 19.9938 22.9106 18.9593 22.9106C17.4261 22.9106 15.468 22.2803 13.9163 21.4275V25.8397C15.6342 26.5813 17.3707 26.8964 18.9593 26.8964C22.8016 26.8964 25.4432 24.9869 25.4432 21.6685C25.4247 16.1439 18.3867 17.1265 18.3867 15.0501Z" fill="white"/>
    <defs>
        <linearGradient id="paint0_linear_2067_364695" x1="3.82812" y1="2.25" x2="14.1744" y2="9.56485" gradientUnits="userSpaceOnUse">
            <stop stop-color="#392993"/>
            <stop offset="1" stop-color="#4B47B9"/>
        </linearGradient>
        <linearGradient id="paint1_linear_2067_364695" x1="5.01432" y1="8.79638" x2="28.4908" y2="27.5017" gradientUnits="userSpaceOnUse">
            <stop stop-color="#594BB9"/>
            <stop offset="1" stop-color="#60A8F2"/>
        </linearGradient>
        <linearGradient id="paint2_linear_2067_364695" x1="3.82812" y1="18.1383" x2="37.2092" y2="21.4217" gradientUnits="userSpaceOnUse">
            <stop stop-color="#61A2EF"/>
            <stop offset="1" stop-color="#58E6FD"/>
        </linearGradient>
        <linearGradient id="paint3_linear_2067_364695" x1="3.82812" y1="18.0506" x2="45.7509" y2="16.6384" gradientUnits="userSpaceOnUse">
            <stop stop-color="#534EBE"/>
            <stop offset="1" stop-color="#6875E2"/>
        </linearGradient>
        <linearGradient id="paint4_linear_2067_364695" x1="3.82813" y1="6.94849" x2="19.6577" y2="37.9857" gradientUnits="userSpaceOnUse">
            <stop stop-color="#71A5F3"/>
            <stop offset="1" stop-color="#6CC3FA"/>
        </linearGradient>
    </defs>
</svg>
