<svg width="54" height="54" viewBox="0 0 54 54" fill="none" xmlns="http://www.w3.org/2000/svg">
    <path fill-rule="evenodd" clip-rule="evenodd" d="M40.3346 48.4059C44.7526 48.4059 48.3346 44.8728 48.3346 40.5149L48.3346 26.7663L51.0013 26.7644L53.668 26.7645L53.668 40.5149C53.668 47.7773 47.6987 53.666 40.3346 53.666L16.3346 53.666C7.6056 53.666 0.33464 46.6931 0.334639 38.0159C0.334639 36.4915 1.58767 35.2557 3.13332 35.2557L13.668 35.2557L13.668 5.25949C13.668 1.93561 17.5804 0.101573 20.1937 2.20034L26.5569 7.3107L30.5491 2.18091C32.0989 0.189451 35.1155 0.113336 36.7666 2.02402L41.2076 7.16351L46.8112 1.52435C49.3191 -0.999542 53.668 0.751751 53.668 4.28566L53.668 26.7645L51.0013 26.7644L48.3346 26.7663L48.3346 7.50623L45.0167 10.8453C42.823 13.0529 39.1813 12.928 37.1484 10.5754L33.7764 6.67305L30.7877 10.5134C28.9577 12.8649 25.52 13.2613 23.1893 11.3896L19.0013 8.02614L19.0013 35.2557L29.536 35.2557C31.0816 35.2557 32.3346 36.4915 32.3346 38.0159L32.3346 40.5158C32.3346 44.8734 35.9164 48.4059 40.3346 48.4059ZM29.667 48.4059C27.9932 46.2081 27.0013 43.4762 27.0013 40.5158L5.98377 40.5158C7.14427 45.0275 11.365 48.4059 16.3346 48.4059L29.667 48.4059ZM29.536 40.5158L29.5323 40.5158L29.536 40.5158Z" fill="#4F5B84"/>
    <path fill-rule="evenodd" clip-rule="evenodd" d="M40.3346 22.1055C41.8074 22.1055 43.0013 20.928 43.0013 19.4754C43.0013 18.0229 41.8074 16.8454 40.3346 16.8454L27.0013 16.8454C25.5285 16.8454 24.3346 18.0229 24.3346 19.4754C24.3346 20.928 25.5285 22.1055 27.0013 22.1055L40.3346 22.1055ZM40.3346 32.6256C41.8074 32.6256 43.0013 31.4481 43.0013 29.9956C43.0013 28.5431 41.8074 27.3656 40.3346 27.3656L27.0013 27.3656C25.5285 27.3656 24.3346 28.5431 24.3346 29.9956C24.3346 31.4481 25.5285 32.6256 27.0013 32.6256L40.3346 32.6256Z" fill="#4F5B84"/>
</svg>
