<svg width="168" height="32" viewBox="0 0 168 32" fill="none" xmlns="http://www.w3.org/2000/svg">
    <path fill-rule="evenodd" clip-rule="evenodd" d="M16.0001 6C16.7212 6 17.3865 6.38821 17.7413 7.01602L20.1766 11.3255L24.3841 12.1487C25.117 12.2921 25.709 12.8319 25.9192 13.5486C26.1294 14.2653 25.9228 15.0394 25.3833 15.556L22.1832 18.6204L22.9235 23.7122C23.0309 24.4509 22.7181 25.1878 22.1121 25.6237C21.5062 26.0595 20.708 26.1216 20.0419 25.7848L16.0001 23.7411L11.9582 25.7848C11.2922 26.1216 10.4939 26.0595 9.888 25.6237C9.28205 25.1878 8.9692 24.4509 9.07659 23.7122L9.81689 18.6204L6.61679 15.556C6.07736 15.0394 5.8707 14.2653 6.08089 13.5486C6.29107 12.8319 6.88308 12.2921 7.61606 12.1487L11.8235 11.3255L14.2589 7.01602C14.6136 6.38821 15.2789 6 16.0001 6Z" fill="#FBB400"/>
    <path fill-rule="evenodd" clip-rule="evenodd" d="M50.0001 6C50.7212 6 51.3865 6.38821 51.7413 7.01602L54.1766 11.3255L58.3841 12.1487C59.117 12.2921 59.709 12.8319 59.9192 13.5486C60.1294 14.2653 59.9228 15.0394 59.3833 15.556L56.1832 18.6204L56.9235 23.7122C57.0309 24.4509 56.7181 25.1878 56.1121 25.6237C55.5062 26.0595 54.708 26.1216 54.0419 25.7848L50.0001 23.7411L45.9582 25.7848C45.2922 26.1216 44.4939 26.0595 43.888 25.6237C43.2821 25.1878 42.9692 24.4509 43.0766 23.7122L43.8169 18.6204L40.6168 15.556C40.0774 15.0394 39.8707 14.2653 40.0809 13.5486C40.2911 12.8319 40.8831 12.2921 41.6161 12.1487L45.8235 11.3255L48.2589 7.01602C48.6136 6.38821 49.2789 6 50.0001 6Z" fill="#FBB400"/>
    <path fill-rule="evenodd" clip-rule="evenodd" d="M84.0001 6C84.7212 6 85.3865 6.38821 85.7413 7.01602L88.1766 11.3255L92.3841 12.1487C93.117 12.2921 93.709 12.8319 93.9192 13.5486C94.1294 14.2653 93.9228 15.0394 93.3833 15.556L90.1832 18.6204L90.9235 23.7122C91.0309 24.4509 90.7181 25.1878 90.1121 25.6237C89.5062 26.0595 88.708 26.1216 88.0419 25.7848L84.0001 23.7411L79.9582 25.7848C79.2922 26.1216 78.4939 26.0595 77.888 25.6237C77.2821 25.1878 76.9692 24.4509 77.0766 23.7122L77.8169 18.6204L74.6168 15.556C74.0774 15.0394 73.8707 14.2653 74.0809 13.5486C74.2911 12.8319 74.8831 12.2921 75.6161 12.1487L79.8235 11.3255L82.2589 7.01602C82.6136 6.38821 83.2789 6 84.0001 6Z" fill="#FBB400"/>
    <path fill-rule="evenodd" clip-rule="evenodd" d="M118 6C118.721 6 119.386 6.38821 119.741 7.01602L122.177 11.3255L126.384 12.1487C127.117 12.2921 127.709 12.8319 127.919 13.5486C128.129 14.2653 127.923 15.0394 127.383 15.556L124.183 18.6204L124.924 23.7122C125.031 24.4509 124.718 25.1878 124.112 25.6237C123.506 26.0595 122.708 26.1216 122.042 25.7848L118 23.7411L113.958 25.7848C113.292 26.1216 112.494 26.0595 111.888 25.6237C111.282 25.1878 110.969 24.4509 111.077 23.7122L111.817 18.6204L108.617 15.556C108.077 15.0394 107.871 14.2653 108.081 13.5486C108.291 12.8319 108.883 12.2921 109.616 12.1487L113.824 11.3255L116.259 7.01602C116.614 6.38821 117.279 6 118 6Z" fill="#E2E4E9"/>
    <path fill-rule="evenodd" clip-rule="evenodd" d="M152 6C152.721 6 153.386 6.38821 153.741 7.01602L156.177 11.3255L160.384 12.1487C161.117 12.2921 161.709 12.8319 161.919 13.5486C162.129 14.2653 161.923 15.0394 161.383 15.556L158.183 18.6204L158.924 23.7122C159.031 24.4509 158.718 25.1878 158.112 25.6237C157.506 26.0595 156.708 26.1216 156.042 25.7848L152 23.7411L147.958 25.7848C147.292 26.1216 146.494 26.0595 145.888 25.6237C145.282 25.1878 144.969 24.4509 145.077 23.7122L145.817 18.6204L142.617 15.556C142.077 15.0394 141.871 14.2653 142.081 13.5486C142.291 12.8319 142.883 12.2921 143.616 12.1487L147.824 11.3255L150.259 7.01602C150.614 6.38821 151.279 6 152 6Z" fill="#E2E4E9"/>
</svg>
