<svg width="54" height="48" viewBox="0 0 54 48" fill="none" xmlns="http://www.w3.org/2000/svg">
    <path fill-rule="evenodd" clip-rule="evenodd" d="M0.332031 2.66667C0.332031 1.19391 1.55655 0 3.06707 0V2.66667V5.33333C1.55655 5.33333 0.332031 4.13943 0.332031 2.66667ZM44.0927 37.3333H50.9303C52.4408 37.3333 53.6654 36.1394 53.6654 34.6667C53.6654 33.1939 52.4408 32 50.9303 32H38.6226C43.1542 32 46.8278 28.4183 46.8278 24V13.3333C46.8278 8.91505 43.1542 5.33333 38.6226 5.33333H27.6825C23.1509 5.33333 19.4773 8.91506 19.4773 13.3333V24C19.4773 28.4183 23.1509 32 27.6825 32H13.8049L11.2641 2.46214C11.1545 1.07282 9.96632 0 8.53716 0H4.94742H3.60126H3.20863H3.10347H3.0763H3.07228H3.06707V2.66667V5.33333H3.0763H3.08769H3.10347H3.14783H3.20863H3.60126H4.94742H6.00443L8.54522 34.8712C8.65483 36.2605 9.84304 37.3333 11.2722 37.3333H16.7423C13.7212 37.3333 11.2722 39.7212 11.2722 42.6667C11.2722 45.6122 13.7212 48 16.7423 48C19.7633 48 22.2124 45.6122 22.2124 42.6667C22.2124 39.7212 19.7633 37.3333 16.7423 37.3333H44.0927ZM44.0927 37.3333C47.1138 37.3333 49.5628 39.7212 49.5628 42.6667C49.5628 45.6122 47.1138 48 44.0927 48C41.0717 48 38.6226 45.6122 38.6226 42.6667C38.6226 39.7212 41.0717 37.3333 44.0927 37.3333ZM24.9474 24C24.9474 25.4728 26.1719 26.6667 27.6825 26.6667H38.6226C40.1332 26.6667 41.3577 25.4728 41.3577 24V13.3333C41.3577 11.8606 40.1332 10.6667 38.6226 10.6667H35.8876V16C35.8876 17.4728 34.6631 18.6667 33.1525 18.6667C31.642 18.6667 30.4175 17.4728 30.4175 16V10.6667H27.6825C26.1719 10.6667 24.9474 11.8606 24.9474 13.3333V24Z" fill="#4F5B84"/>
</svg>
